<?xml version="1.0" encoding="UTF-8" standalone="no"?>
<svg
   id="svg4306"
   width="22"
   height="22"
   version="1.1"
   style="enable-background:new"
   sodipodi:docname="restore.svg"
   inkscape:version="1.3.2 (091e20ef0f, 2023-11-25)"
   xmlns:inkscape="http://www.inkscape.org/namespaces/inkscape"
   xmlns:sodipodi="http://sodipodi.sourceforge.net/DTD/sodipodi-0.dtd"
   xmlns="http://www.w3.org/2000/svg"
   xmlns:svg="http://www.w3.org/2000/svg"
   xmlns:rdf="http://www.w3.org/1999/02/22-rdf-syntax-ns#"
   xmlns:cc="http://creativecommons.org/ns#"
   xmlns:dc="http://purl.org/dc/elements/1.1/">
  <metadata
     id="metadata28">
    <rdf:RDF>
      <cc:Work
         rdf:about="">
        <dc:format>image/svg+xml</dc:format>
        <dc:type
           rdf:resource="http://purl.org/dc/dcmitype/StillImage" />
      </cc:Work>
    </rdf:RDF>
  </metadata>
  <defs
     id="defs26" />
  <sodipodi:namedview
     inkscape:document-rotation="0"
     pagecolor="#ffffff"
     bordercolor="#030303"
     borderopacity="1"
     objecttolerance="10"
     gridtolerance="10"
     guidetolerance="10"
     inkscape:pageopacity="0"
     inkscape:pageshadow="2"
     inkscape:window-width="1920"
     inkscape:window-height="1001"
     id="namedview24"
     showgrid="false"
     inkscape:zoom="5.6568543"
     inkscape:cx="49.143921"
     inkscape:cy="3.9774756"
     inkscape:window-x="0"
     inkscape:window-y="0"
     inkscape:window-maximized="1"
     inkscape:current-layer="svg4306"
     inkscape:snap-bbox="true"
     inkscape:bbox-nodes="true"
     inkscape:lockguides="false"
     inkscape:showpageshadow="2"
     inkscape:pagecheckerboard="0"
     inkscape:deskcolor="#d1d1d1">
    <inkscape:grid
       type="xygrid"
       id="grid853"
       originx="0"
       originy="-22"
       spacingy="1"
       spacingx="1"
       units="px"
       visible="false" />
  </sodipodi:namedview>
  <style
     type="text/css"
     id="current-color-scheme" />
  <g
     id="inactive-center"
     transform="translate(22,-22)">
    <rect
       style="opacity:0.00100002;fill:#000000;fill-opacity:1;fill-rule:nonzero;stroke:none;stroke-width:2;stroke-linecap:round;stroke-linejoin:round;stroke-miterlimit:4;stroke-dasharray:none;stroke-opacity:1"
       y="22"
       x="-22"
       height="22"
       width="22"
       id="rect4266-9" />
    <circle
       style="opacity:0.01;fill:#ffffff;fill-opacity:1;stroke-width:1.001;enable-background:new"
       id="path867-5-6-5-1"
       cx="-11"
       cy="33"
       r="9" />
    <path
       d="m -17.034861,32 a 0.48278835,0.48278835 0 0 1 0.341174,0.141622 L -11,37.835304 -5.306316,32.141622 a 0.48278835,0.48278835 0 0 1 0.682339,0.682335 l -6.034859,6.034853 a 0.48278835,0.48278835 0 0 1 -0.682334,0 l -6.034857,-6.034853 A 0.48278835,0.48278835 0 0 1 -17.034861,32 Z"
       id="path4-3"
       style="fill:#949fb9;stroke-width:0.160926;enable-background:new;fill-opacity:1" />
    <path
       d="m -4.976813,34 a 0.48278835,0.48278835 0 0 1 -0.341174,-0.141622 l -5.693687,-5.693682 -5.693684,5.693682 a 0.48278835,0.48278835 0 0 1 -0.682339,-0.682335 l 6.034859,-6.034853 a 0.48278835,0.48278835 0 0 1 0.682334,0 l 6.034857,6.034853 A 0.48278835,0.48278835 0 0 1 -4.976813,34 Z"
       id="path4-36"
       style="fill:#949fb9;fill-opacity:1;stroke-width:0.160926;enable-background:new" />
  </g>
  <g
     id="hover-inactive-center">
    <rect
       id="rect4266-3-67"
       width="22"
       height="22"
       x="22"
       y="0"
       style="opacity:0.00100002;fill:#000000;fill-opacity:1;fill-rule:nonzero;stroke:none;stroke-width:2;stroke-linecap:round;stroke-linejoin:round;stroke-miterlimit:4;stroke-dasharray:none;stroke-opacity:1" />
    <circle
       r="9"
       cy="11"
       cx="33"
       id="path867-5-6-5-3"
       style="opacity:0.01;fill:#497dbe;fill-opacity:1;stroke-width:1.001;enable-background:new" />
    <path
       d="m 26.982357,10 a 0.48278835,0.48278835 0 0 1 0.341174,0.141622 l 5.693687,5.693681 5.693684,-5.693681 a 0.48278835,0.48278835 0 0 1 0.682339,0.682335 l -6.034859,6.034852 a 0.48278835,0.48278835 0 0 1 -0.682334,0 L 26.641191,10.823957 A 0.48278835,0.48278835 0 0 1 26.982357,10 Z"
       id="path4-56"
       style="fill:#00d4aa;stroke-width:0.160926;enable-background:new" />
    <path
       d="M 39.040404,11.999998 A 0.48278835,0.48278835 0 0 1 38.69923,11.858376 L 33.005543,6.1646957 27.31186,11.858376 a 0.48278835,0.48278835 0 0 1 -0.682339,-0.682335 l 6.034858,-6.0348513 a 0.48278835,0.48278835 0 0 1 0.682334,0 l 6.034857,6.0348513 a 0.48278835,0.48278835 0 0 1 -0.341166,0.823957 z"
       id="path4-5-5"
       style="fill:#00d4aa;fill-opacity:1;stroke-width:0.160926;enable-background:new" />
  </g>
  <g
     id="pressed-inactive-center">
    <rect
       style="opacity:0.00100002;fill:#000000;fill-opacity:1;fill-rule:nonzero;stroke:none;stroke-width:2;stroke-linecap:round;stroke-linejoin:round;stroke-miterlimit:4;stroke-dasharray:none;stroke-opacity:1"
       y="0"
       x="44"
       height="22"
       width="22"
       id="rect4266-3-6-5" />
    <circle
       r="9"
       cy="11"
       cx="55"
       id="path867-5-6-5-2"
       style="opacity:0.01;fill:#335c8f;fill-opacity:1;stroke-width:1.001;enable-background:new" />
    <path
       d="m 48.982357,10 a 0.48278835,0.48278835 0 0 1 0.341174,0.141622 l 5.693687,5.693682 5.693684,-5.693682 a 0.48278835,0.48278835 0 0 1 0.682339,0.682335 l -6.034859,6.034853 a 0.48278835,0.48278835 0 0 1 -0.682334,0 L 48.641191,10.823957 A 0.48278835,0.48278835 0 0 1 48.982357,10 Z"
       id="path4-9"
       style="fill:#008066;stroke-width:0.160926;enable-background:new" />
    <path
       d="M 61.040405,12 A 0.48278835,0.48278835 0 0 1 60.699231,11.858378 L 55.005544,6.1646957 49.31186,11.858378 A 0.48278835,0.48278835 0 0 1 48.629521,11.176043 L 54.66438,5.1411897 a 0.48278835,0.48278835 0 0 1 0.682334,0 l 6.034857,6.0348533 A 0.48278835,0.48278835 0 0 1 61.040405,12 Z"
       id="path4-9-3"
       style="fill:#008066;stroke-width:0.160926;enable-background:new" />
  </g>
  <g
     id="active-center">
    <rect
       id="rect4266"
       width="22"
       height="22"
       x="0"
       y="-22"
       style="opacity:0.00100002;fill:#000000;fill-opacity:1;fill-rule:nonzero;stroke:none;stroke-width:2;stroke-linecap:round;stroke-linejoin:round;stroke-miterlimit:4;stroke-dasharray:none;stroke-opacity:1" />
    <circle
       r="9"
       cy="-11"
       cx="11"
       id="path867-5-6-5"
       style="opacity:0.01;fill:#ffffff;fill-opacity:1;stroke-width:1.001;enable-background:new" />
    <path
       d="m 4.965139,-12 a 0.48278835,0.48278835 0 0 1 0.341174,0.141622 L 11,-6.164696 l 5.693684,-5.693682 a 0.48278835,0.48278835 0 0 1 0.682339,0.682335 l -6.034859,6.034853 a 0.48278835,0.48278835 0 0 1 -0.682334,0 L 4.623973,-11.176043 A 0.48278835,0.48278835 0 0 1 4.965139,-12 Z"
       id="path4"
       style="fill:#d3dae3;fill-opacity:1;stroke-width:0.160926" />
    <path
       d="m 17.023187,-10.000003 a 0.48278835,0.48278835 0 0 1 -0.341174,-0.141622 l -5.693687,-5.693679 -5.6936839,5.693679 a 0.48278835,0.48278835 0 0 1 -0.682339,-0.682333 l 6.0348589,-6.034852 a 0.48278835,0.48278835 0 0 1 0.682334,0 l 6.034857,6.034852 a 0.48278835,0.48278835 0 0 1 -0.341166,0.823955 z"
       id="path4-562"
       style="fill:#d3dae3;fill-opacity:1;stroke-width:0.160926;enable-background:new" />
  </g>
  <g
     id="hover-center">
    <rect
       style="opacity:0.00100002;fill:#000000;fill-opacity:1;fill-rule:nonzero;stroke:none;stroke-width:2;stroke-linecap:round;stroke-linejoin:round;stroke-miterlimit:4;stroke-dasharray:none;stroke-opacity:1"
       y="-22"
       x="22"
       height="22"
       width="22"
       id="rect4266-3" />
    <circle
       r="9"
       cy="-11"
       cx="33"
       id="path867-5-6-5-67"
       style="opacity:0.01;fill:#497dbe;fill-opacity:1;stroke-width:1.001;enable-background:new" />
    <path
       d="m 26.982357,-12 a 0.48278835,0.48278835 0 0 1 0.341174,0.141622 l 5.693687,5.693681 5.693684,-5.693681 a 0.48278835,0.48278835 0 0 1 0.682339,0.682335 l -6.034859,6.034852 a 0.48278835,0.48278835 0 0 1 -0.682334,0 l -6.034857,-6.034852 A 0.48278835,0.48278835 0 0 1 26.982357,-12 Z"
       id="path4-5"
       style="fill:#00d4aa;fill-opacity:1;stroke-width:0.160926;enable-background:new" />
    <path
       d="m 39.040392,-10.000004 a 0.48278835,0.48278835 0 0 1 -0.341174,-0.141621 l -5.693687,-5.693679 -5.693685,5.693679 a 0.48278835,0.48278835 0 0 1 -0.682339,-0.682333 l 6.03486,-6.034852 a 0.48278835,0.48278835 0 0 1 0.682334,0 l 6.034857,6.034852 a 0.48278835,0.48278835 0 0 1 -0.341166,0.823954 z"
       id="path4-5-9"
       style="fill:#00d4aa;fill-opacity:1;stroke-width:0.160926;enable-background:new" />
  </g>
  <g
     id="pressed-center">
    <rect
       id="rect4266-3-6"
       width="22"
       height="22"
       x="44"
       y="-22"
       style="opacity:0.00100002;fill:#000000;fill-opacity:1;fill-rule:nonzero;stroke:none;stroke-width:2;stroke-linecap:round;stroke-linejoin:round;stroke-miterlimit:4;stroke-dasharray:none;stroke-opacity:1" />
    <circle
       r="9"
       cy="-11"
       cx="55"
       id="path867-5-6-5-2-1"
       style="opacity:0.01;fill:#335c8f;fill-opacity:1;stroke-width:1.001;enable-background:new" />
    <path
       d="m 48.982357,-12 a 0.48278835,0.48278835 0 0 1 0.341174,0.141622 l 5.693687,5.693682 5.693684,-5.693682 a 0.48278835,0.48278835 0 0 1 0.682339,0.682335 l -6.034859,6.034853 a 0.48278835,0.48278835 0 0 1 -0.682334,0 l -6.034857,-6.034853 A 0.48278835,0.48278835 0 0 1 48.982357,-12 Z"
       id="path4-9-2"
       style="fill:#008066;stroke-width:0.160926;enable-background:new" />
    <path
       d="m 61.040391,-10.000003 a 0.48278835,0.48278835 0 0 1 -0.341175,-0.141622 l -5.693686,-5.693679 -5.693684,5.693679 a 0.48278835,0.48278835 0 0 1 -0.682339,-0.682333 l 6.034859,-6.034852 a 0.48278835,0.48278835 0 0 1 0.682334,0 l 6.034857,6.034852 a 0.48278835,0.48278835 0 0 1 -0.341166,0.823955 z"
       id="path4-9-2-1"
       style="fill:#008066;stroke-width:0.160926;enable-background:new" />
  </g>
</svg>
