<?xml version="1.0" encoding="UTF-8" standalone="no"?>
<svg
   xmlns:dc="http://purl.org/dc/elements/1.1/"
   xmlns:cc="http://creativecommons.org/ns#"
   xmlns:rdf="http://www.w3.org/1999/02/22-rdf-syntax-ns#"
   xmlns:svg="http://www.w3.org/2000/svg"
   xmlns="http://www.w3.org/2000/svg"
   xmlns:sodipodi="http://sodipodi.sourceforge.net/DTD/sodipodi-0.dtd"
   xmlns:inkscape="http://www.inkscape.org/namespaces/inkscape"
   inkscape:version="1.0.2 (e86c870879, 2021-01-15)"
   sodipodi:docname="system-reboot.svg"
   id="svg6"
   version="1.1"
   viewBox="0 0 32 32">
  <metadata
     id="metadata10">
    <rdf:RDF>
      <cc:Work
         rdf:about="">
        <dc:format>image/svg+xml</dc:format>
        <dc:type
           rdf:resource="http://purl.org/dc/dcmitype/StillImage" />
      </cc:Work>
    </rdf:RDF>
  </metadata>
  <sodipodi:namedview
     inkscape:document-rotation="0"
     inkscape:current-layer="svg6"
     inkscape:window-maximized="1"
     inkscape:window-y="0"
     inkscape:window-x="0"
     inkscape:cy="15.412793"
     inkscape:cx="26.002227"
     inkscape:zoom="10.028541"
     showgrid="true"
     id="namedview8"
     inkscape:window-height="1007"
     inkscape:window-width="1920"
     inkscape:pageshadow="2"
     inkscape:pageopacity="0"
     guidetolerance="10"
     gridtolerance="10"
     objecttolerance="10"
     borderopacity="1"
     bordercolor="#666666"
     pagecolor="#ffffff">
    <inkscape:grid
       type="xygrid"
       id="grid871" />
  </sodipodi:namedview>
  <defs
     id="defs3051">
    <style
       id="current-color-scheme"
       type="text/css">
      .ColorScheme-Text {
        color:#eff0f1;
      }
      </style>
  </defs>
  <g
     id="g887" />
  <path
     style="color:#000000;overflow:visible;opacity:0;fill:#0000ff;fill-opacity:1;stroke-width:1.06667"
     id="path940"
     overflow="visible"
     d="m 60.626965,-17.595446 c -8.82859,0 -16,7.171413 -16,15.9999996 0,8.828587 7.17141,16.0000004 16,16.0000004 8.82752,0 16,-7.1714134 16,-16.0000004 0,-8.8275196 -7.17141,-15.9999996 -16,-15.9999996 z"
     inkscape:connector-curvature="0" />
  <path
     d="m 23.679516,8.150224 4.862812,2.473171 -1.469319,0.720907 c 0.605615,1.430438 0.945476,3.002495 0.945476,4.655811 C 28.018485,22.625663 22.647157,28 16.0186,28 13.895113,28 11.901947,27.442482 10.171983,26.474129 l 1.213783,-1.213493 c 1.39522,0.699968 2.964197,1.103924 4.632834,1.103924 5.723968,0 10.36191,-4.640541 10.36191,-10.362141 0,-1.535433 -0.355212,-2.982199 -0.955694,-4.29275 z m -7.825249,2.545965 z m 0,0 z m 0.166904,-5.060863 c -5.723963,0 -10.361909,4.64092 -10.361909,10.364787 0,1.535471 0.355204,2.981972 0.955698,4.292523 L 8.362815,23.849776 3.5,21.376264 4.969323,20.655508 C 4.363704,19.224655 4.023843,17.652976 4.023843,16.000113 4.021243,9.373657 9.395172,4 16.021171,4 c 2.123488,0 4.116659,0.556876 5.846623,1.525304 l -1.213788,1.214022 c -1.395215,-0.70012 -2.96675,-1.104 -4.632835,-1.104 z"
     id="path4-9"
     sodipodi:nodetypes="cccssccsscccccccccccccccccccccccccccsscccccscc"
     style="fill:#d3dae3;fill-opacity:1;stroke-width:0.0255532" />
</svg>
