<?xml version="1.0" encoding="UTF-8" standalone="no"?>
<svg
   xmlns:dc="http://purl.org/dc/elements/1.1/"
   xmlns:cc="http://creativecommons.org/ns#"
   xmlns:rdf="http://www.w3.org/1999/02/22-rdf-syntax-ns#"
   xmlns:svg="http://www.w3.org/2000/svg"
   xmlns="http://www.w3.org/2000/svg"
   xmlns:sodipodi="http://sodipodi.sourceforge.net/DTD/sodipodi-0.dtd"
   xmlns:inkscape="http://www.inkscape.org/namespaces/inkscape"
   viewBox="0 0 22 22"
   version="1.1"
   id="svg5"
   sodipodi:docname="computer-laptop.svg"
   inkscape:version="1.0.2 (e86c870879, 2021-01-15)">
  <metadata
     id="metadata9">
    <rdf:RDF>
      <cc:Work
         rdf:about="">
        <dc:format>image/svg+xml</dc:format>
        <dc:type
           rdf:resource="http://purl.org/dc/dcmitype/StillImage" />
      </cc:Work>
    </rdf:RDF>
  </metadata>
  <sodipodi:namedview
     pagecolor="#ffffff"
     bordercolor="#666666"
     borderopacity="1"
     objecttolerance="10"
     gridtolerance="10"
     guidetolerance="10"
     inkscape:pageopacity="0"
     inkscape:pageshadow="2"
     inkscape:window-width="1920"
     inkscape:window-height="1007"
     id="namedview7"
     showgrid="true"
     inkscape:zoom="20.184684"
     inkscape:cx="2.6927322"
     inkscape:cy="9.6972984"
     inkscape:window-x="0"
     inkscape:window-y="0"
     inkscape:window-maximized="1"
     inkscape:current-layer="svg5"
     showguides="false">
    <inkscape:grid
       type="xygrid"
       id="grid852" />
  </sodipodi:namedview>
  <defs
     id="defs3051">
    <style
       type="text/css"
       id="current-color-scheme">
      .ColorScheme-Text {
        color:#eff0f1;
      }
      </style>
  </defs>
  <path
     d="m 8.962431,16.7364 v 1.333062 H 7.625296 C 7.205508,18.069462 6.86516,18.485879 6.86516,19 h 8.271454 c 0,-0.514121 -0.340339,-0.930538 -0.760123,-0.930538 H 13.061913 V 16.7364 Z"
     id="path2"
     style="fill:#d3dae3;fill-opacity:1;stroke-width:0.240023" />
  <path
     d="M 2.605583,12.60644 H 1.70024 V 13.511767 15.087 c 0,0.605813 0.492995,1.098805 1.098796,1.098805 H 19.22554 c 0.605804,0 1.09881,-0.492992 1.09881,-1.098805 V 13.511767 12.60644 h -0.905351 z m 16.813178,2.480809 c 0,0.10632 -0.08668,0.193457 -0.19345,0.193457 H 2.798796 c -0.106566,0 -0.193213,-0.08691 -0.193213,-0.193457 v -1.575225 h 16.813178 z"
     id="path4"
     style="fill:#d3dae3;fill-opacity:1;stroke-width:0.240023" />
  <path
     d="M 19.22554,3 H 2.798796 C 2.192995,3 1.7,3.4929951 1.7,4.098556 v 8.514353 H 2.605343 V 4.098796 c 0,-0.106566 0.08665,-0.193453 0.193213,-0.193453 H 19.22554 c 0.106571,0 0.193459,0.086647 0.193459,0.193453 v 8.514113 h 0.905352 V 4.098796 C 20.324096,3.4929951 19.831344,3 19.22554,3 Z"
     id="path6"
     style="fill:#d3dae3;fill-opacity:1;stroke-width:0.240023" />
  <path
     inkscape:connector-curvature="0"
     id="path3825-5"
     style="color:#31363b;clip-rule:evenodd;fill:#d3dae3;fill-opacity:1;fill-rule:nonzero;stroke-width:0.355212;stroke-linejoin:round;stroke-miterlimit:1.41421"
     d="M 11.62344,4.666666 10.441098,4.780192 V 9.644114 L 11.61081,9.467525 V 7.3937986 L 13.184737,9.694581 14.417615,9.303547 12.805793,7.0910643 14.430249,5.00472 13.172109,4.717124 11.61081,6.803466 Z m -2.680481,1.18571 c -0.01344,0.00133 -0.02785,0.00511 -0.03782,0.015119 L 8.440247,6.33168 c -0.01954,0.019594 -0.02192,0.049508 -0.0076,0.073168 L 8.975769,7.3004311 C 8.879319,7.4623273 8.801004,7.6359953 8.745868,7.8201211 L 7.747935,8.026996 c -0.02777,0.00594 -0.048,0.032157 -0.048,0.06053 v 0.6559144 c 0,0.02779 0.02114,0.051534 0.048,0.058057 L 8.715532,9.036105 c 0.05177,0.213166 0.131677,0.417145 0.237483,0.60295 L 8.392162,10.49176 c -0.01565,0.02372 -0.01258,0.05555 0.0076,0.07573 l 0.464857,0.464189 c 0.01963,0.01956 0.04963,0.02188 0.07327,0.008 L 9.817054,10.50738 c 0.172447,0.09942 0.359134,0.17906 0.555809,0.232097 l 0.204633,0.983835 c 0.0066,0.02789 0.02963,0.04793 0.05817,0.04793 h 0.656858 c 0.02763,0 0.05162,-0.01842 0.05816,-0.04548 l 0.242532,-0.98896 c 0.202841,-0.05469 0.394075,-0.135688 0.57096,-0.239663 l 0.866541,0.567619 c 0.02385,0.01549 0.0555,0.01247 0.07587,-0.0081 l 0.462328,-0.464192 c 0.01968,-0.01961 0.02453,-0.04953 0.01012,-0.07313 l -0.315799,-0.519693 -0.103579,0.03282 c -0.01504,0.0052 -0.03149,-0.0025 -0.04045,-0.01515 0,0 -0.199485,-0.293034 -0.4598,-0.673578 -0.311326,0.608331 -0.94624,1.024239 -1.677511,1.024239 -1.03912,0 -1.882145,-0.841824 -1.882145,-1.8794647 0,-0.7632704 0.457072,-1.4188382 1.111608,-1.7129708 v -0.484172 c -0.119129,0.04165 -0.234214,0.091871 -0.343591,0.1513677 -1.39e-4,-8.9e-5 2.24e-4,-0.00227 0,-0.0024 L 8.98085,5.8601004 c -0.01197,-0.00776 -0.02454,-0.00889 -0.03783,-0.00759 z"
     class="ColorScheme-Text" />
</svg>
