<?xml version="1.0" encoding="UTF-8" standalone="no"?>
<svg
   xmlns:dc="http://purl.org/dc/elements/1.1/"
   xmlns:cc="http://creativecommons.org/ns#"
   xmlns:rdf="http://www.w3.org/1999/02/22-rdf-syntax-ns#"
   xmlns:svg="http://www.w3.org/2000/svg"
   xmlns="http://www.w3.org/2000/svg"
   xmlns:sodipodi="http://sodipodi.sourceforge.net/DTD/sodipodi-0.dtd"
   xmlns:inkscape="http://www.inkscape.org/namespaces/inkscape"
   inkscape:version="1.0.2 (e86c870879, 2021-01-15)"
   sodipodi:docname="help.svg"
   style="enable-background:new"
   version="1.1"
   height="22"
   width="22"
   id="svg4306">
  <metadata
     id="metadata28">
    <rdf:RDF>
      <cc:Work
         rdf:about="">
        <dc:format>image/svg+xml</dc:format>
        <dc:type
           rdf:resource="http://purl.org/dc/dcmitype/StillImage" />
        <dc:title />
      </cc:Work>
    </rdf:RDF>
  </metadata>
  <defs
     id="defs26" />
  <sodipodi:namedview
     inkscape:bbox-nodes="true"
     inkscape:snap-bbox="true"
     inkscape:current-layer="svg4306"
     inkscape:window-maximized="1"
     inkscape:window-y="0"
     inkscape:window-x="0"
     inkscape:cy="0.57033192"
     inkscape:cx="38.1547"
     inkscape:zoom="4.8295453"
     showgrid="false"
     id="namedview24"
     inkscape:window-height="1007"
     inkscape:window-width="1920"
     inkscape:pageshadow="2"
     inkscape:pageopacity="0"
     guidetolerance="10"
     gridtolerance="10"
     objecttolerance="10"
     borderopacity="1"
     bordercolor="#666666"
     pagecolor="#ffffff"
     inkscape:document-rotation="0"
     inkscape:lockguides="false">
    <inkscape:grid
       id="grid853"
       type="xygrid"
       originx="0"
       originy="-22" />
  </sodipodi:namedview>
  <style
     id="current-color-scheme"
     type="text/css" />
  <g
     id="active-center"
     transform="translate(44,-22)">
    <rect
       style="opacity:0.013;fill:#000000;fill-opacity:1;stroke-width:1.02253"
       id="rect861"
       width="22"
       height="22"
       x="-44"
       y="0" />
    <circle
       r="9"
       cy="11"
       cx="-33"
       id="path867-5-6-5-3-9"
       style="opacity:0.01;fill:#ffffff;fill-opacity:1;stroke-width:1.001;enable-background:new" />
    <path
       d="m -33.08978,15.73617 c -0.35745,0 -0.59575,-0.238298 -0.59575,-0.595744 v -2.26383 c 0,-1.072341 0.89362,-1.608511 1.72766,-2.144681 0.95319,-0.595745 1.90638,-1.19149 1.96596,-2.502128 0,-1.668085 -1.37021,-3.038298 -3.0383,-3.038298 -1.66808,0 -3.0383,1.370213 -3.0383,3.038298 0,0.357447 -0.2383,0.595745 -0.59574,0.595745 -0.35745,0 -0.59575,-0.238298 -0.59575,-0.595745 C -37.26,5.906383 -35.35361,4 -33.03021,4 c 2.3234,0 4.22979,1.906383 4.22979,4.229787 -0.11915,1.965958 -1.48936,2.859575 -2.50213,3.455319 -0.71489,0.417022 -1.13192,0.714894 -1.13192,1.131915 v 2.26383 c -0.0596,0.357447 -0.35744,0.655319 -0.65531,0.655319 z m 0,1.489362 m -0.77447,0 a 0.77446809,0.77446809 0 1 0 1.54893,0 0.77446809,0.77446809 0 1 0 -1.54893,0 z"
       id="path4"
       style="fill:#d3dae3;fill-opacity:1;stroke-width:0.0139628" />
  </g>
  <g
     id="inactive-center"
     transform="translate(44,-22)">
    <rect
       y="22"
       x="-44"
       height="22"
       width="22"
       id="rect861-7"
       style="opacity:0.00100002;fill:#000000;fill-opacity:1;stroke-width:1.02253" />
    <circle
       r="9"
       cy="33"
       cx="-33"
       id="path867-5-6-5-3-9-7"
       style="opacity:0.01;fill:#ffffff;fill-opacity:1;stroke-width:1.001;enable-background:new" />
    <path
       d="m -33.08978,37.736171 c -0.35745,0 -0.59575,-0.238298 -0.59575,-0.595744 v -2.26383 c 0,-1.072341 0.89362,-1.608511 1.72766,-2.144681 0.95319,-0.595745 1.90638,-1.191491 1.96596,-2.502129 0,-1.668085 -1.37021,-3.038298 -3.0383,-3.038298 -1.66808,0 -3.0383,1.370213 -3.0383,3.038298 0,0.357447 -0.2383,0.595745 -0.59574,0.595745 -0.35745,0 -0.59575,-0.238298 -0.59575,-0.595745 C -37.26,27.906383 -35.35361,26 -33.03021,26 c 2.3234,0 4.22979,1.906383 4.22979,4.229787 -0.11915,1.965959 -1.48936,2.859576 -2.50213,3.45532 -0.71489,0.417022 -1.13192,0.714894 -1.13192,1.131915 v 2.26383 c -0.0596,0.357447 -0.35744,0.655319 -0.65531,0.655319 z m 0,1.489362 m -0.77447,0 a 0.77446809,0.77446809 0 1 0 1.54893,0 0.77446809,0.77446809 0 1 0 -1.54893,0 z"
       id="path4-5"
       style="fill:#b2bacd;stroke-width:0.0139628;enable-background:new;fill-opacity:1" />
  </g>
  <g
     id="hover-center"
     transform="translate(44,-22)">
    <rect
       y="0"
       x="-22"
       height="22"
       width="22"
       id="rect861-6"
       style="opacity:0.00100002;fill:#000000;fill-opacity:1;stroke-width:1.02253" />
    <circle
       r="9"
       cy="11"
       cx="-11"
       id="path867-5-6-5-3-9-7-3"
       style="opacity:1;fill:#497dbe;fill-opacity:1;stroke-width:1.001;enable-background:new" />
    <path
       d="m -11.089784,15.736173 c -0.357449,0 -0.595749,-0.238298 -0.595749,-0.595744 v -2.26383 c 0,-1.072341 0.893619,-1.608511 1.727659,-2.144681 0.95319,-0.595745 1.90638,-1.1914911 1.96596,-2.5021287 0,-1.668085 -1.37021,-3.038298 -3.0383,-3.038298 -1.66808,0 -3.0383,1.370213 -3.0383,3.038298 0,0.357447 -0.2383,0.595745 -0.59574,0.595745 -0.35745,0 -0.59575,-0.238298 -0.59575,-0.595745 0,-2.323404 1.90639,-4.229787 4.22979,-4.229787 2.3234,0 4.22979,1.906383 4.22979,4.229787 -0.11915,1.9659587 -1.48936,2.8595757 -2.50213,3.4553197 -0.71489,0.417022 -1.13192,0.714894 -1.13192,1.131915 v 2.26383 c -0.0596,0.357447 -0.35744,0.655319 -0.65531,0.655319 z m 0,1.489362 m -0.77447,0 a 0.77446809,0.77446809 0 1 0 1.54893,0 0.77446809,0.77446809 0 1 0 -1.54893,0 z"
       id="path4-5-5"
       style="fill:#ffffff;stroke-width:0.0139628;enable-background:new" />
  </g>
  <g
     id="pressed-center"
     transform="translate(44,-22)">
    <rect
       style="opacity:0.00100002;fill:#000000;fill-opacity:1;stroke-width:1.02253"
       id="rect861-6-6"
       width="22"
       height="22"
       x="0"
       y="0" />
    <circle
       r="9"
       cy="11"
       cx="11"
       id="path867-5-6-5-3-9-7-6"
       style="opacity:1;fill:#356097;fill-opacity:1;stroke-width:1.001;enable-background:new" />
    <path
       d="m 10.910216,15.736171 c -0.35745,0 -0.59575,-0.238298 -0.59575,-0.595744 v -2.26383 c 0,-1.072341 0.89362,-1.608511 1.72766,-2.144681 0.95319,-0.595745 1.90638,-1.1914915 1.96596,-2.5021295 0,-1.668085 -1.37021,-3.038298 -3.0383,-3.038298 -1.6680806,0 -3.0383006,1.370213 -3.0383006,3.038298 0,0.357447 -0.2383,0.595745 -0.59574,0.595745 -0.35745,0 -0.59575,-0.238298 -0.59575,-0.595745 0,-2.323404 1.90639,-4.229787 4.2297906,-4.229787 2.3234,0 4.22979,1.906383 4.22979,4.229787 -0.11915,1.9659595 -1.48936,2.8595765 -2.50213,3.4553205 -0.71489,0.417022 -1.13192,0.714894 -1.13192,1.131915 v 2.26383 c -0.0596,0.357447 -0.35744,0.655319 -0.65531,0.655319 z m 0,1.489362 m -0.77447,0 a 0.77446809,0.77446809 0 1 0 1.54893,0 0.77446809,0.77446809 0 1 0 -1.54893,0 z"
       id="path4-5-2"
       style="fill:#ffffff;stroke-width:0.0139628;enable-background:new" />
  </g>
  <g
     id="hover-inactive-center"
     transform="translate(44,-22)">
    <rect
       style="opacity:0.00100002;fill:#000000;fill-opacity:1;stroke-width:1.02253"
       id="rect861-6-67"
       width="22"
       height="22"
       x="-22"
       y="22" />
    <circle
       r="9"
       cy="33.774467"
       cx="-11"
       id="path867-5-6-5-3-9-7-9"
       style="opacity:1;fill:#497dbe;fill-opacity:1;stroke-width:1.001;enable-background:new" />
    <path
       d="m -11.089779,38.510638 c -0.35745,0 -0.595749,-0.238298 -0.595749,-0.595744 v -2.26383 c 0,-1.072341 0.893619,-1.608511 1.727659,-2.144681 0.95319,-0.595745 1.90638,-1.191491 1.96596,-2.502129 0,-1.668085 -1.37021,-3.038298 -3.0383,-3.038298 -1.668079,0 -3.038299,1.370213 -3.038299,3.038298 0,0.357447 -0.2383,0.595745 -0.59574,0.595745 -0.35745,0 -0.59575,-0.238298 -0.59575,-0.595745 0,-2.323404 1.90639,-4.229787 4.229789,-4.229787 2.3234,0 4.22979,1.906383 4.22979,4.229787 -0.11915,1.965959 -1.48936,2.859576 -2.50213,3.45532 -0.71489,0.417022 -1.13192,0.714894 -1.13192,1.131915 v 2.26383 c -0.0596,0.357447 -0.35744,0.655319 -0.65531,0.655319 z m 0,1.489362 m -0.774469,0 a 0.77446809,0.77446809 0 1 0 1.548929,0 0.77446809,0.77446809 0 1 0 -1.548929,0 z"
       id="path4-5-1"
       style="fill:#ffffff;stroke-width:0.0139628;enable-background:new" />
  </g>
  <g
     id="pressed-inactive-center"
     transform="translate(44,-22)">
    <rect
       y="22"
       x="0"
       height="22"
       width="22"
       id="rect861-6-6-5"
       style="opacity:0.00100002;fill:#000000;fill-opacity:1;stroke-width:1.02253" />
    <circle
       r="9"
       cy="33"
       cx="11"
       id="path867-5-6-5-3-9-7-2"
       style="opacity:1;fill:#356097;fill-opacity:1;stroke-width:1.001;enable-background:new" />
    <path
       d="m 10.91022,37.736167 c -0.35745,0 -0.59575,-0.238298 -0.59575,-0.595744 v -2.26383 c 0,-1.072341 0.89362,-1.608511 1.72766,-2.144681 0.95319,-0.595745 1.90638,-1.191491 1.96596,-2.502129 0,-1.668085 -1.37021,-3.038298 -3.0383,-3.038298 -1.66808,0 -3.0383,1.370213 -3.0383,3.038298 0,0.357447 -0.2383,0.595745 -0.59574,0.595745 -0.35745,0 -0.59575,-0.238298 -0.59575,-0.595745 0,-2.323404 1.90639,-4.229787 4.22979,-4.229787 2.3234,0 4.22979,1.906383 4.22979,4.229787 -0.11915,1.965959 -1.48936,2.859576 -2.50213,3.45532 -0.71489,0.417022 -1.13192,0.714894 -1.13192,1.131915 v 2.26383 c -0.0596,0.357447 -0.35744,0.655319 -0.65531,0.655319 z m 0,1.489362 m -0.77447,0 a 0.77446809,0.77446809 0 1 0 1.54893,0 0.77446809,0.77446809 0 1 0 -1.54893,0 z"
       id="path4-5-7"
       style="fill:#ffffff;stroke-width:0.0139628;enable-background:new" />
  </g>
</svg>
