<?xml version="1.0" encoding="UTF-8" standalone="no"?>
<svg
   xmlns:dc="http://purl.org/dc/elements/1.1/"
   xmlns:cc="http://creativecommons.org/ns#"
   xmlns:rdf="http://www.w3.org/1999/02/22-rdf-syntax-ns#"
   xmlns:svg="http://www.w3.org/2000/svg"
   xmlns="http://www.w3.org/2000/svg"
   xmlns:sodipodi="http://sodipodi.sourceforge.net/DTD/sodipodi-0.dtd"
   xmlns:inkscape="http://www.inkscape.org/namespaces/inkscape"
   id="svg4306"
   width="22"
   height="22"
   version="1.1"
   style="enable-background:new"
   sodipodi:docname="maximize.svg"
   inkscape:version="1.0.2 (e86c870879, 2021-01-15)">
  <metadata
     id="metadata28">
    <rdf:RDF>
      <cc:Work
         rdf:about="">
        <dc:format>image/svg+xml</dc:format>
        <dc:type
           rdf:resource="http://purl.org/dc/dcmitype/StillImage" />
        <dc:title />
      </cc:Work>
    </rdf:RDF>
  </metadata>
  <defs
     id="defs26" />
  <sodipodi:namedview
     inkscape:document-rotation="0"
     pagecolor="#ffffff"
     bordercolor="#666666"
     borderopacity="1"
     objecttolerance="10"
     gridtolerance="10"
     guidetolerance="10"
     inkscape:pageopacity="0"
     inkscape:pageshadow="2"
     inkscape:window-width="1920"
     inkscape:window-height="1007"
     id="namedview24"
     showgrid="false"
     inkscape:zoom="5.6568543"
     inkscape:cx="64.493511"
     inkscape:cy="8.8781462"
     inkscape:window-x="0"
     inkscape:window-y="0"
     inkscape:window-maximized="1"
     inkscape:current-layer="svg4306"
     inkscape:snap-bbox="true"
     inkscape:bbox-nodes="true"
     inkscape:lockguides="false">
    <inkscape:grid
       type="xygrid"
       id="grid853"
       originx="0"
       originy="-22" />
  </sodipodi:namedview>
  <style
     type="text/css"
     id="current-color-scheme" />
  <g
     id="active-center">
    <rect
       id="rect4266"
       width="22"
       height="22"
       x="0"
       y="-22"
       style="opacity:0.00100002;fill:#000000;fill-opacity:1;fill-rule:nonzero;stroke:none;stroke-width:2;stroke-linecap:round;stroke-linejoin:round;stroke-miterlimit:4;stroke-dasharray:none;stroke-opacity:1" />
    <circle
       r="9"
       cy="-11"
       cx="11"
       id="path867-5-6-5"
       style="opacity:0.01;fill:#ffffff;fill-opacity:1;stroke-width:1.001;enable-background:new" />
    <path
       d="m 17.023187,-8.0000038 a 0.48278835,0.48278835 0 0 1 -0.341174,-0.141622 l -5.693687,-5.6936782 -5.6936839,5.6936782 a 0.48278835,0.48278835 0 0 1 -0.682339,-0.682335 L 10.647162,-14.85881 a 0.48278835,0.48278835 0 0 1 0.682334,0 l 6.034857,6.0348492 a 0.48278835,0.48278835 0 0 1 -0.341166,0.823957 z"
       id="path4"
       style="fill:#d3dae3;fill-opacity:1;stroke-width:0.160926" />
  </g>
  <g
     id="inactive-center"
     transform="translate(44,-22)">
    <rect
       style="opacity:0.00100002;fill:#000000;fill-opacity:1;fill-rule:nonzero;stroke:none;stroke-width:2;stroke-linecap:round;stroke-linejoin:round;stroke-miterlimit:4;stroke-dasharray:none;stroke-opacity:1"
       y="22"
       x="-44"
       height="22"
       width="22"
       id="rect4266-9" />
    <circle
       style="opacity:0.01;fill:#ffffff;fill-opacity:1;stroke-width:1.001;enable-background:new"
       id="path867-5-6-5-1"
       cx="-33"
       cy="33"
       r="9" />
    <path
       d="m -26.976813,36 a 0.48278835,0.48278835 0 0 1 -0.341174,-0.141622 l -5.693687,-5.693682 -5.693684,5.693682 a 0.48278835,0.48278835 0 0 1 -0.682339,-0.682335 l 6.034859,-6.034853 a 0.48278835,0.48278835 0 0 1 0.682334,0 l 6.034857,6.034853 A 0.48278835,0.48278835 0 0 1 -26.976813,36 Z"
       id="path4-3"
       style="fill:#b2b8cd;stroke-width:0.160926;enable-background:new;fill-opacity:1" />
  </g>
  <g
     id="hover-center">
    <g
       style="enable-background:new"
       id="g1112"
       transform="translate(22,-22)">
      <rect
         style="opacity:0.00100002;fill:#000000;fill-opacity:1;fill-rule:nonzero;stroke:none;stroke-width:2;stroke-linecap:round;stroke-linejoin:round;stroke-miterlimit:4;stroke-dasharray:none;stroke-opacity:1"
         y="0"
         x="0"
         height="22"
         width="22"
         id="rect4266-3" />
    </g>
    <circle
       r="9"
       cy="-11"
       cx="33"
       id="path867-5-6-5-67"
       style="opacity:0.4;fill:#497dbe;fill-opacity:1;stroke-width:1.001;enable-background:new" />
    <path
       d="m 39.040406,-8.0000035 a 0.48278835,0.48278835 0 0 1 -0.341174,-0.141622 l -5.693687,-5.6936785 -5.693685,5.6936785 a 0.48278835,0.48278835 0 0 1 -0.682339,-0.682335 l 6.03486,-6.0348495 a 0.48278835,0.48278835 0 0 1 0.682334,0 l 6.034857,6.0348495 a 0.48278835,0.48278835 0 0 1 -0.341166,0.823957 z"
       id="path4-5"
       style="fill:#ffffff;stroke-width:0.160926;enable-background:new" />
  </g>
  <g
     id="hover-inactive-center">
    <rect
       id="rect4266-3-67"
       width="22"
       height="22"
       x="22"
       y="0"
       style="opacity:0.00100002;fill:#000000;fill-opacity:1;fill-rule:nonzero;stroke:none;stroke-width:2;stroke-linecap:round;stroke-linejoin:round;stroke-miterlimit:4;stroke-dasharray:none;stroke-opacity:1" />
    <circle
       r="9"
       cy="11"
       cx="33"
       id="path867-5-6-5-3"
       style="opacity:0.5;fill:#497dbe;fill-opacity:1;stroke-width:1.001;enable-background:new" />
    <path
       d="M 39.040404,13.999998 A 0.48278835,0.48278835 0 0 1 38.69923,13.858376 L 33.005544,8.1646957 27.31186,13.858376 A 0.48278835,0.48278835 0 0 1 26.629521,13.176041 L 32.66438,7.1411897 a 0.48278835,0.48278835 0 0 1 0.682334,0 l 6.034856,6.0348513 a 0.48278835,0.48278835 0 0 1 -0.341166,0.823957 z"
       id="path4-56"
       style="fill:#ffffff;stroke-width:0.160926;enable-background:new" />
  </g>
  <g
     id="pressed-inactive-center">
    <rect
       style="opacity:0.00100002;fill:#000000;fill-opacity:1;fill-rule:nonzero;stroke:none;stroke-width:2;stroke-linecap:round;stroke-linejoin:round;stroke-miterlimit:4;stroke-dasharray:none;stroke-opacity:1"
       y="0"
       x="44"
       height="22"
       width="22"
       id="rect4266-3-6-5" />
    <circle
       r="9"
       cy="11"
       cx="55"
       id="path867-5-6-5-2"
       style="opacity:0.5;fill:#335c8f;fill-opacity:1;stroke-width:1.001;enable-background:new" />
    <path
       d="M 61.040405,14 A 0.48278835,0.48278835 0 0 1 60.699231,13.858378 L 55.005544,8.1646957 49.31186,13.858378 A 0.48278835,0.48278835 0 0 1 48.629521,13.176043 L 54.66438,7.1411897 a 0.48278835,0.48278835 0 0 1 0.682334,0 l 6.034857,6.0348533 A 0.48278835,0.48278835 0 0 1 61.040405,14 Z"
       id="path4-9"
       style="fill:#ffffff;stroke-width:0.160926;enable-background:new" />
  </g>
  <g
     id="pressed-center">
    <rect
       id="rect4266-3-6"
       width="22"
       height="22"
       x="44"
       y="-22"
       style="opacity:0.00100002;fill:#000000;fill-opacity:1;fill-rule:nonzero;stroke:none;stroke-width:2;stroke-linecap:round;stroke-linejoin:round;stroke-miterlimit:4;stroke-dasharray:none;stroke-opacity:1" />
    <circle
       r="9"
       cy="-11"
       cx="55"
       id="path867-5-6-5-2-1"
       style="opacity:0.4;fill:#335c8f;fill-opacity:1;stroke-width:1.001;enable-background:new" />
    <path
       d="m 61.040405,-8.0000033 a 0.48278835,0.48278835 0 0 1 -0.341174,-0.141622 l -5.693687,-5.6936787 -5.693684,5.6936787 a 0.48278835,0.48278835 0 0 1 -0.682339,-0.682335 L 54.66438,-14.85881 a 0.48278835,0.48278835 0 0 1 0.682334,0 l 6.034857,6.0348497 a 0.48278835,0.48278835 0 0 1 -0.341166,0.823957 z"
       id="path4-9-2"
       style="fill:#ffffff;stroke-width:0.160926;enable-background:new" />
  </g>
</svg>
