<?xml version="1.0" encoding="UTF-8" standalone="no"?>
<svg
   xmlns:dc="http://purl.org/dc/elements/1.1/"
   xmlns:cc="http://creativecommons.org/ns#"
   xmlns:rdf="http://www.w3.org/1999/02/22-rdf-syntax-ns#"
   xmlns:svg="http://www.w3.org/2000/svg"
   xmlns="http://www.w3.org/2000/svg"
   xmlns:sodipodi="http://sodipodi.sourceforge.net/DTD/sodipodi-0.dtd"
   xmlns:inkscape="http://www.inkscape.org/namespaces/inkscape"
   viewBox="0 0 22 22"
   version="1.1"
   id="svg6"
   sodipodi:docname="folder-Pop_OS.svg"
   inkscape:version="1.0.2 (e86c870879, 2021-01-15)">
  <metadata
     id="metadata10">
    <rdf:RDF>
      <cc:Work
         rdf:about="">
        <dc:format>image/svg+xml</dc:format>
        <dc:type
           rdf:resource="http://purl.org/dc/dcmitype/StillImage" />
      </cc:Work>
    </rdf:RDF>
  </metadata>
  <sodipodi:namedview
     pagecolor="#ffffff"
     bordercolor="#666666"
     borderopacity="1"
     objecttolerance="10"
     gridtolerance="10"
     guidetolerance="10"
     inkscape:pageopacity="0"
     inkscape:pageshadow="2"
     inkscape:window-width="1920"
     inkscape:window-height="1007"
     id="namedview8"
     showgrid="true"
     inkscape:zoom="14.272727"
     inkscape:cx="-9.4914706"
     inkscape:cy="5.7303696"
     inkscape:window-x="0"
     inkscape:window-y="0"
     inkscape:window-maximized="1"
     inkscape:current-layer="svg6">
    <inkscape:grid
       type="xygrid"
       id="grid870" />
  </sodipodi:namedview>
  <defs
     id="defs3051">
    <style
       type="text/css"
       id="current-color-scheme">
      .ColorScheme-Text {
        color:#eff0f1
      }
      </style>
  </defs>
  <path
     style="fill:#eff0f1;fill-opacity:1;stroke-width:0.0197677"
     id="path2-3"
     d="m 19.015596,11.932397 c -0.03718,0.157844 -0.117339,0.297708 -0.25424,0.385623 -0.215118,0.137865 -0.477186,0.09793 -0.66297,-0.06994 -0.174054,-0.155853 -0.232719,-0.419602 -0.177972,-0.647381 0.05679,-0.237769 0.236637,-0.44757 0.467412,-0.513501 0.514341,-0.145861 0.727513,0.425586 0.62777,0.845184 z m -0.31486,-1.622439 c -0.318779,-0.129873 -0.209262,-1.8382226 0.08211,-3.9122293 0.08211,-0.5794374 0.222962,-0.8531747 0.381357,-0.9930396 0.226872,-0.1978089 0.639513,-0.2058019 0.919184,-0.1638418 0.32073,0.04794 0.62777,0.1998057 0.860485,0.4295816 0.205354,0.2038034 0.228821,0.4116033 0.15842,0.6813431 -0.115367,0.4295894 -0.312905,0.8411912 -0.502605,1.2428051 -0.04495,0.097911 -0.438075,0.8591725 -0.490887,0.9530787 -0.948503,1.7063572 -1.138203,1.8721982 -1.408075,1.7623022 z" />
  <path
     style="fill:#eff0f1;fill-opacity:1;stroke-width:0.0197677"
     id="path4-3"
     d="m 12.266569,9.5407011 c 0.187744,0.8192129 0.168178,1.7183399 0.0086,2.3657189 -0.150633,0.611415 -0.559368,1.158878 -1.20865,1.342702 -0.569101,0.161844 -1.2320772,0.04391 -1.6388582,-0.355653 -0.668841,-0.655371 -1.059974,-2.193887 -0.88592,-3.3108089 0.140808,-0.8971337 0.614079,-2.0460301 1.6525422,-2.0959803 0.06645,-0.0041 0.132987,-0.00177 0.199482,0.0041 1.058018,0.09792 1.634942,1.0090291 1.87354,2.0500243 z m -1.912657,1.8642019 c 0.05871,0.01005 0.117374,0.01005 0.17601,-0.0082 0.197521,-0.05797 0.310953,-0.267776 0.363754,-0.471578 0.08014,-0.309705 0.06849,-0.643382 -0.03515,-0.947089 -0.05283,-0.153852 -0.131032,-0.303709 -0.25033,-0.4156009 -0.420458,-0.3936181 -0.8409412,0.01599 -0.9132992,0.4815349 -0.05667,0.363655 0.02536,0.785247 0.248376,1.078964 0.1036302,0.135867 0.2522832,0.253753 0.4106842,0.281729 z" />
  <path
     style="fill:#eff0f1;fill-opacity:1;stroke-width:0.0197677"
     id="path6"
     d="m 14.556661,11.277027 c -0.0015,1.512547 0.146673,2.669424 -0.504581,2.8073 -0.528015,0.109872 -0.510409,-0.363654 -0.55149,-0.761278 -0.156445,-1.540513 -0.299214,-4.1000425 -0.359839,-5.6485513 0.0431,-0.6653562 0.479139,-1.0729661 0.93285,-1.1728667 0.70014,-0.1538524 1.447213,-0.1098834 2.067156,0.2817288 1.226204,0.7752491 1.32399,2.197876 0.580836,3.3587592 -0.406784,0.63339 -1.6369,1.092947 -2.164932,1.052984 z m 0.156454,-3.3907322 c -0.07618,0.011994 -0.201438,0.047947 -0.236639,0.1238839 -0.08407,0.1778259 -0.07826,1.3067423 0.06848,1.7802823 0.02351,0.07792 0.07633,0.151854 0.152536,0.179831 0.277709,0.10387 0.528041,-0.243768 0.641466,-0.4535673 0.158403,-0.2917174 0.209255,-0.6353849 0.10948,-0.9550802 C 15.354578,8.26393 15.063148,7.8323509 14.713095,7.8862959 Z" />
  <path
     style="fill:#eff0f1;fill-opacity:1;stroke-width:0.0197677"
     id="path8"
     d="m 7.5436048,8.6375714 c -0.459577,0.9930457 -1.222293,1.7822826 -2.278362,2.1719066 0.303122,0.809217 0.612131,1.608449 0.913305,2.415675 0.168181,0.43557 0.328563,0.913113 0.181874,1.342698 -0.152547,0.439576 -0.747062,0.56146 -1.179268,0.09388 C 4.3499968,13.758598 1.5396778,8.0361123 1.3323748,7.6065291 1.1563658,7.236885 0.89234981,6.8412696 0.90016981,6.4136801 0.91391981,5.7702981 1.8877958,5.1189273 2.3551998,4.7852498 3.0083968,4.3196937 3.7632838,4.002 4.5709788,4 c 0.629726,0 1.167543,0.175832 1.644724,0.4875296 0.73143,0.4795382 1.239909,1.2448031 1.427651,2.1099669 0.164264,0.7612604 0.129067,1.5405157 -0.09972,2.040033 M 5.4021558,7.550583 C 5.2378878,6.9411685 4.8663018,6.3797117 4.3988938,5.9860904 4.2971328,5.9001774 4.1876758,5.8202535 4.0605558,5.7762958 c -0.876138,-0.293716 -0.496736,1.2028404 -0.35397,1.5804745 0.19753,0.5294879 0.496739,1.1988399 0.897662,1.5984614 0.08805,0.087951 0.191655,0.1658328 0.310948,0.1898138 0.181873,0.03794 0.350061,-0.091913 0.441981,-0.2437685 0.07628,-0.1258763 0.105531,-0.2757308 0.12321,-0.4215874 0.03337,-0.3097043 0.0038,-0.6254008 -0.07827,-0.9291066 z" />
  <path
     style="fill:#eff0f1;fill-opacity:1;stroke-width:0.0197677"
     id="path10"
     d="m 18.020849,16.243663 c -0.0043,0.877155 -0.528031,1.754318 -1.683834,1.754318 -1.155805,0 -1.693615,-0.863173 -1.693615,-1.744326 0,-1.098935 0.749024,-1.778283 1.717081,-1.778283 1.122566,0.0099 1.670146,0.861162 1.660368,1.768291 z m -1.660368,-1.214824 c -0.72556,0 -1.132336,0.515511 -1.136248,1.218815 0,0.611422 0.334417,1.184869 1.122561,1.184869 0.788136,0 1.089311,-0.621401 1.089311,-1.190857 0.0095,-0.591425 -0.297267,-1.198839 -1.075624,-1.212827 z m 2.145376,2.519572 c 0,0.129877 0.0043,-0.617404 0,-0.731289 h 0.531945 l 0.03716,0.45755 c 0.174043,0.101974 0.443938,0.177833 0.66493,0.177833 0.410691,0 0.838974,-0.105888 0.838974,-0.515509 -0.0136,-0.371634 -0.490863,-0.44757 -0.876139,-0.487519 -0.655147,-0.0679 -1.183186,-0.23179 -1.183186,-0.983058 0,-0.669352 0.741204,-1.003035 1.292694,-1.003035 0.443938,-0.0099 0.758803,0.06187 1.159726,0.389622 0,0.269737 -0.0043,0.429591 -0.0043,0.699327 h -0.514088 l -0.03322,-0.44358 c -0.207307,-0.101954 -0.420472,-0.129862 -0.584753,-0.125872 -0.353971,0.0042 -0.731416,0.173844 -0.731416,0.477539 0,0.297715 0.244461,0.379646 0.678618,0.443585 0.707955,0.09591 1.390484,0.259748 1.390484,1.031003 -0.0043,0.843182 -0.778358,1.064974 -1.443286,1.064974 -0.50652,0.0015 -0.823339,-0.09388 -1.224258,-0.451569 z"
     inkscape:connector-curvature="0" />
  <path
     style="fill:#eff0f1;fill-opacity:1;stroke-width:0.0197677"
     id="path12"
     d="m 13.925655,17.710254 c 0,0.153854 -0.121276,0.277726 -0.271823,0.277726 h -3.142775 c -0.150581,0 -0.271829,-0.12379 -0.271829,-0.277726 v -0.02393 c 0,-0.153851 0.121281,-0.277726 0.271829,-0.277726 h 3.142775 c 0.150581,0 0.271823,0.123862 0.271823,0.277726 z"
     inkscape:connector-curvature="0" />
</svg>
