<?xml version="1.0" encoding="UTF-8" standalone="no"?>
<svg
   xmlns:dc="http://purl.org/dc/elements/1.1/"
   xmlns:cc="http://creativecommons.org/ns#"
   xmlns:rdf="http://www.w3.org/1999/02/22-rdf-syntax-ns#"
   xmlns:svg="http://www.w3.org/2000/svg"
   xmlns="http://www.w3.org/2000/svg"
   xmlns:sodipodi="http://sodipodi.sourceforge.net/DTD/sodipodi-0.dtd"
   xmlns:inkscape="http://www.inkscape.org/namespaces/inkscape"
   viewBox="0 0 24 24"
   width="24"
   height="24"
   version="1.1"
   id="svg8"
   sodipodi:docname="drive-partition.svg"
   inkscape:version="1.0.2 (e86c870879, 2021-01-15)">
  <metadata
     id="metadata12">
    <rdf:RDF>
      <cc:Work
         rdf:about="">
        <dc:format>image/svg+xml</dc:format>
        <dc:type
           rdf:resource="http://purl.org/dc/dcmitype/StillImage" />
      </cc:Work>
    </rdf:RDF>
  </metadata>
  <sodipodi:namedview
     pagecolor="#ffffff"
     bordercolor="#666666"
     borderopacity="1"
     objecttolerance="10"
     gridtolerance="10"
     guidetolerance="10"
     inkscape:pageopacity="0"
     inkscape:pageshadow="2"
     inkscape:window-width="1920"
     inkscape:window-height="1007"
     id="namedview10"
     showgrid="false"
     inkscape:zoom="13.083333"
     inkscape:cx="-7.6895276"
     inkscape:cy="2.6693693"
     inkscape:window-x="0"
     inkscape:window-y="0"
     inkscape:window-maximized="1"
     inkscape:current-layer="svg8"
     inkscape:document-rotation="0" />
  <defs
     id="defs3051">
    <style
       type="text/css"
       id="current-color-scheme">
      .ColorScheme-Text {
        color:#eff0f1;
      }
      </style>
  </defs>
  <g
     transform="translate(1,1)"
     id="g6" />
  <path
     d="m 17.84031,6.9341798 a 0.22770618,0.212543 0 0 0 -0.02887,0.00539 0.28347689,0.26459993 0 0 0 -0.09936,0.059877 l -5.158057,4.8145502 a 0.28896733,0.26972471 0 0 0 0,0.381392 l 5.158063,4.814584 a 0.28347689,0.26459993 0 0 0 0.09936,0.05988 0.22770618,0.212543 0 0 0 0.02886,0.0053 0.28896733,0.26972471 0 0 0 0.08662,0.01217 c 0.0021,0 0.0053,0 0.0072,0 a 0.27885339,0.26028431 0 0 0 0.03376,-0.0086 0.27134029,0.25327148 0 0 0 0.06995,-0.01835 0.27654175,0.25812649 0 0 0 0.0431,-0.02698 0.28636653,0.26729714 0 0 0 0.04012,-0.02508 c 0.0046,-0.0039 0.0058,-0.0097 0.01044,-0.01429 0.0037,-0.0047 0.01,-0.0055 0.01304,-0.0098 a 8.6629499,8.0860765 0 0 0 0,-9.9620094 c -0.0032,-0.00429 -0.0098,-0.00628 -0.01304,-0.00992 -0.0034,-0.00378 -0.0053,-0.01025 -0.01044,-0.014297 a 0.28636653,0.26729714 0 0 0 -0.04012,-0.025087 0.27654175,0.25812649 0 0 0 -0.0431,-0.026972 0.27134029,0.25327148 0 0 0 -0.06995,-0.018347 0.27885339,0.26028431 0 0 0 -0.03376,-0.00862 c -0.0019,0 -0.0051,0 -0.0072,0 a 0.28896733,0.26972471 0 0 0 -0.08662,0.015371 z m 1.564472,5.0708242 a 7.9882114,7.4562698 0 0 1 -1.518817,4.404606 l -4.718829,-4.404606 4.718829,-4.4046038 a 7.9882114,7.4562698 0 0 1 1.518817,4.4046038 z"
     id="path6-5"
     style="fill:#eff0f1;fill-opacity:1;stroke-width:0.279185" />
  <path
     d="M 17.656823,6.3431649 C 16.145911,4.8321287 14.136808,4 12.000001,4 9.8631916,4 7.854088,4.8321287 6.343169,6.3431649 4.832137,7.8541985 4,9.8631836 4,12.000001 4,14.136817 4.832137,16.145802 6.343169,17.656839 7.854088,19.167771 9.8631916,20 12.000001,20 14.136808,20 16.14591,19.167771 17.656823,17.656839 19.16778,16.145803 20,14.136817 20,12.000001 20,9.8631836 19.167779,7.8541012 17.656823,6.3431649 Z M 17.209765,17.209766 c -1.391515,1.391598 -3.241787,2.158107 -5.209764,2.158107 -1.968061,0 -3.818249,-0.766511 -5.209866,-2.158107 -1.391589,-1.391504 -2.157914,-3.241797 -2.157914,-5.209765 0,-1.968066 0.766325,-3.8182623 2.157914,-5.2098637 1.391617,-1.3916001 3.241805,-2.1579119 5.209866,-2.1579119 1.967977,0 3.818249,0.7663118 5.209764,2.1579119 1.391609,1.3916014 2.158014,3.2417977 2.158014,5.2098637 0,1.967968 -0.766405,3.818261 -2.158014,5.209765 z m 0,0"
     id="path2-36-91"
     style="fill:#eff0f1;fill-opacity:1;stroke-width:0.0250011" />
</svg>
