<?xml version="1.0" encoding="UTF-8" standalone="no"?>
<svg
   xmlns:dc="http://purl.org/dc/elements/1.1/"
   xmlns:cc="http://creativecommons.org/ns#"
   xmlns:rdf="http://www.w3.org/1999/02/22-rdf-syntax-ns#"
   xmlns:svg="http://www.w3.org/2000/svg"
   xmlns="http://www.w3.org/2000/svg"
   xmlns:xlink="http://www.w3.org/1999/xlink"
   xmlns:sodipodi="http://sodipodi.sourceforge.net/DTD/sodipodi-0.dtd"
   xmlns:inkscape="http://www.inkscape.org/namespaces/inkscape"
   id="svg15"
   version="1.1"
   viewBox="0 0 96 96"
   sodipodi:docname="folder-Pop_OS.svg"
   inkscape:version="1.0.2 (e86c870879, 2021-01-15)">
  <metadata
     id="metadata18">
    <rdf:RDF>
      <cc:Work
         rdf:about="">
        <dc:format>image/svg+xml</dc:format>
        <dc:type
           rdf:resource="http://purl.org/dc/dcmitype/StillImage" />
      </cc:Work>
    </rdf:RDF>
  </metadata>
  <sodipodi:namedview
     pagecolor="#ffffff"
     bordercolor="#666666"
     borderopacity="1"
     objecttolerance="10"
     gridtolerance="10"
     guidetolerance="10"
     inkscape:pageopacity="0"
     inkscape:pageshadow="2"
     inkscape:window-width="1920"
     inkscape:window-height="1007"
     id="namedview16"
     showgrid="false"
     inkscape:zoom="3.2708333"
     inkscape:cx="-43.905818"
     inkscape:cy="10.701744"
     inkscape:window-x="0"
     inkscape:window-y="0"
     inkscape:window-maximized="1"
     inkscape:current-layer="svg15"
     inkscape:document-rotation="0" />
  <defs
     id="defs5455">
    <linearGradient
       id="linearGradient4178"
       x2="0"
       y1="541.79797"
       y2="499.78421"
       gradientTransform="matrix(1.4999996,0,0,1.4995115,-576.85701,-725.43213)"
       gradientUnits="userSpaceOnUse">
      <stop
         id="stop4174-6-7"
         stop-color="#3daee9"
         offset="0" />
      <stop
         id="stop4176-6-5"
         stop-color="#6cc1ef"
         offset="1" />
    </linearGradient>
    <linearGradient
       inkscape:collect="always"
       xlink:href="#linearGradient836"
       id="linearGradient838"
       x1="6"
       y1="50.000134"
       x2="94.005508"
       y2="50.000134"
       gradientUnits="userSpaceOnUse"
       gradientTransform="matrix(0.9780981,0,0,1,64.250683,974.47294)" />
    <linearGradient
       inkscape:collect="always"
       id="linearGradient836">
      <stop
         style="stop-color:#4b8bd4;stop-opacity:1"
         offset="0"
         id="stop832" />
      <stop
         style="stop-color:#3b6ca7;stop-opacity:1"
         offset="1"
         id="stop834" />
    </linearGradient>
    <linearGradient
       inkscape:collect="always"
       xlink:href="#linearGradient836"
       id="linearGradient882"
       x1="38.886646"
       y1="37.846565"
       x2="42.124203"
       y2="37.846565"
       gradientUnits="userSpaceOnUse"
       gradientTransform="matrix(2.1428583,0,0,2.1428583,-21.898534,-30.290871)" />
    <linearGradient
       inkscape:collect="always"
       xlink:href="#linearGradient836"
       id="linearGradient866"
       x1="29.485872"
       y1="39.437679"
       x2="33.387089"
       y2="39.437679"
       gradientUnits="userSpaceOnUse"
       gradientTransform="matrix(2.1428583,0,0,2.1428583,-21.898534,-30.290871)" />
    <linearGradient
       inkscape:collect="always"
       xlink:href="#linearGradient836"
       id="linearGradient874"
       x1="34.126762"
       y1="39.295525"
       x2="38.177818"
       y2="39.295525"
       gradientUnits="userSpaceOnUse"
       gradientTransform="matrix(2.1428583,0,0,2.1428583,-21.898534,-30.290871)" />
    <linearGradient
       inkscape:collect="always"
       xlink:href="#linearGradient836"
       id="linearGradient858"
       x1="21.886"
       y1="38.515591"
       x2="28.731234"
       y2="38.515591"
       gradientUnits="userSpaceOnUse"
       gradientTransform="matrix(2.1428583,0,0,2.1428583,-21.898534,-30.290871)" />
  </defs>
  <g
     transform="matrix(1.1142775,0,0,1.1142775,-78.132325,-1093.5471)"
     id="g4">
    <path
       style="color:#000000;font-style:normal;font-variant:normal;font-weight:normal;font-stretch:normal;font-size:medium;line-height:normal;font-family:Sans;-inkscape-font-specification:Sans;text-indent:0;text-align:start;text-decoration:none;text-decoration-line:none;letter-spacing:normal;word-spacing:normal;text-transform:none;writing-mode:lr-tb;direction:ltr;baseline-shift:baseline;text-anchor:start;display:inline;overflow:visible;visibility:visible;opacity:1;fill:url(#linearGradient838);fill-opacity:1;fill-rule:nonzero;stroke:none;stroke-width:3.95596;marker:none;enable-background:accumulate"
       d="m 77.516136,989.47294 c -3.988712,0 -7.396866,2.85993 -7.396866,6.65625 v 56.01651 c 0,2.3649 0.836461,3.8844 2.460429,5.2631 1.623967,1.3787 3.30936,2.0641 5.459931,2.0641 h 68.3709 c 1.64145,0.029 1.59477,-2.2249 3.9e-4,-2.2488 l -68.465873,-0.04 c -2.115981,0 -3.874159,-1.4929 -3.874159,-1.4929 0,0 -1.620163,-1.2165 -1.620163,-3.5457 v -56.01651 c 0,-2.61614 1.77916,-4.29462 4.886948,-4.26047 l 24.066557,-0.0121 11.47627,10.23088 c 0.34679,0.3129 0.79077,0.759 1.25317,0.769 l 33.37023,-0.012 c 1.7015,-0.01 1.64773,-2.3444 -0.0538,-2.3717 h -32.61346 l -12.1651,-10.53119 c -0.35109,-0.30157 -0.79464,-0.46748 -1.25318,-0.46875 z m 38.818274,2.90625 c -1.55276,-0.004 -1.55586,2.67092 0.0388,2.69371 l 29.7626,-0.0408 c 3.0158,-0.004 4.32232,0.97316 5.32647,1.90993 1.00416,0.93677 2.53008,3.23017 2.53008,5.59337 v 54.9375 c 0.009,1.8591 2.19838,1.9203 2.20491,0.064 l -0.006,-55.0018 c -3.1e-4,-3.21041 -1.04994,-5.89832 -2.9343,-7.65623 -1.88434,-1.75791 -4.44981,-2.5 -7.12177,-2.5 h -29.61804 c -0.0611,-0.003 -0.12228,-0.003 -0.18339,0 z"
       id="path2-3"
       sodipodi:nodetypes="sssssccscsssccccccccsccsssccssscc" />
  </g>
  <path
     style="fill:url(#linearGradient882);fill-opacity:1.0;stroke-width:0.0423597"
     id="path2-3-3"
     d="m 63.819242,57.497993 c -0.07985,0.338227 -0.251345,0.637938 -0.544806,0.826328 -0.461066,0.295419 -1.022483,0.209837 -1.420537,-0.149904 -0.373156,-0.333972 -0.498833,-0.899149 -0.381552,-1.387249 0.120863,-0.509513 0.507052,-0.959081 1.001673,-1.10036 1.102191,-0.312559 1.558977,0.911964 1.345222,1.811113 z m -0.674503,-3.476682 c -0.683303,-0.278294 -0.448617,-3.939027 0.176535,-8.383346 0.176652,-1.241661 0.477806,-1.828249 0.817229,-2.127964 0.486132,-0.423874 1.370471,-0.441002 1.969601,-0.351092 0.687278,0.102684 1.345223,0.428157 1.843874,0.920529 0.440146,0.436729 0.490376,0.882031 0.339507,1.46003 -0.247218,0.920566 -0.670417,1.802573 -1.07701,2.663162 -0.0964,0.209853 -0.938757,1.841088 -1.051747,2.042317 -2.03271,3.656484 -2.439014,4.01186 -3.017433,3.776364 z" />
  <path
     style="fill:url(#linearGradient866);fill-opacity:1.0;stroke-width:0.0423597"
     id="path4"
     d="m 49.357016,52.372902 c 0.40214,1.755485 0.36034,3.682166 0.008,5.069409 -0.32273,1.310189 -1.1986,2.483319 -2.58997,2.877228 -1.21937,0.346809 -2.64013,0.09415 -3.51174,-0.762118 -1.43328,-1.404381 -2.27143,-4.701205 -1.89846,-7.094609 0.30171,-1.922416 1.3159,-4.384343 3.54115,-4.491378 0.14246,-0.0085 0.28497,-0.0017 0.42755,0.0085 2.26714,0.209832 3.50342,2.162205 4.01468,4.392914 z m -4.09849,3.994716 c 0.12506,0.0215 0.25146,0.0215 0.37717,-0.01804 0.42328,-0.124091 0.66632,-0.573734 0.77933,-1.010456 0.17251,-0.663648 0.14781,-1.378675 -0.0756,-2.029471 -0.11369,-0.32969 -0.28071,-0.650808 -0.53651,-0.890578 -0.9009,-0.843469 -1.80184,0.03425 -1.95706,1.031873 -0.12087,0.779249 0.0551,1.682662 0.53236,2.312059 0.2221,0.291141 0.54058,0.543752 0.88015,0.603708 z" />
  <path
     style="fill:url(#linearGradient874);fill-opacity:1.0;stroke-width:0.0423597"
     id="path6"
     d="m 54.264436,56.093617 c -0.002,3.241181 0.31434,5.720196 -1.08129,6.015667 -1.13155,0.235418 -1.09371,-0.779283 -1.18184,-1.631332 -0.33516,-3.301113 -0.64113,-8.785836 -0.77105,-12.104057 0.091,-1.425756 1.02684,-2.299227 1.99902,-2.51329 1.50048,-0.329687 3.101068,-0.235461 4.429658,0.6037 2.627504,1.661263 2.837072,4.709743 1.244544,7.197354 -0.871548,1.35727 -3.507534,2.342043 -4.639042,2.256411 z m 0.33526,-7.265879 c -0.16316,0.02578 -0.43167,0.102715 -0.50731,0.265468 -0.1801,0.381054 -0.16769,2.800184 0.14788,3.814896 0.0505,0.166996 0.16327,0.325404 0.32688,0.385382 0.595192,0.222562 1.131412,-0.52238 1.374517,-0.971969 0.339491,-0.625104 0.448383,-1.361517 0.234724,-2.046603 -0.20185,-0.637943 -0.825636,-1.562758 -1.575831,-1.447174 z" />
  <path
     style="fill:url(#linearGradient858);fill-opacity:1.0;stroke-width:0.0423597"
     id="path8"
     d="m 39.236306,50.43762 c -0.98482,2.127977 -2.61916,3.819187 -4.88223,4.654091 0.64973,1.734048 1.31183,3.446694 1.95711,5.17648 0.36052,0.93335 0.70395,1.956658 0.38978,2.877214 -0.32695,0.941932 -1.60082,1.203109 -2.52699,0.201191 -1.78105,-1.935293 -7.80307,-14.197779 -8.24717,-15.118304 -0.37745,-0.792095 -0.94303,-1.639849 -0.92645,-2.556112 0.0297,-1.378683 2.11646,-2.774485 3.11794,-3.489494 1.39972,-0.997618 3.0173,-1.678402 4.74813,-1.682686 1.34951,0 2.50172,0.376792 3.52451,1.044701 1.56724,1.027598 2.65696,2.667453 3.05921,4.521381 0.35191,1.631264 0.27671,3.301104 -0.21379,4.371502 m -4.58855,-2.329186 c -0.35213,-1.305896 -1.14865,-2.509005 -2.15014,-3.352496 -0.21784,-0.184063 -0.45263,-0.355356 -0.72486,-0.449548 -1.87742,-0.629391 -1.06442,2.577518 -0.75861,3.38674 0.42334,1.134609 1.06458,2.568923 1.9237,3.425278 0.18811,0.188527 0.41063,0.355341 0.66615,0.406732 0.38987,0.08114 0.75006,-0.196989 0.94714,-0.522358 0.16273,-0.269739 0.22617,-0.590843 0.26401,-0.903392 0.0703,-0.663654 0.004,-1.340151 -0.16818,-1.990956 z" />
  <path
     style="fill:#3bb4c4;fill-opacity:1;stroke-width:0.0423597"
     id="path10"
     d="m 61.687627,66.736441 c -0.0048,1.879609 -1.131536,3.759245 -3.608267,3.759245 -2.476501,0 -3.629084,-1.849668 -3.629084,-3.737856 0,-2.354886 1.605107,-3.810616 3.679368,-3.810616 2.405484,0.0215 3.578967,1.845366 3.557983,3.789227 z m -3.557983,-2.603213 c -1.554659,0 -2.426373,1.104669 -2.434678,2.611754 0,1.310164 0.716435,2.539016 2.40536,2.539016 1.688876,0 2.334352,-1.331589 2.334352,-2.551857 0.02231,-1.267337 -0.637074,-2.568943 -2.305034,-2.598913 z m 4.597345,5.399086 c 0,0.2783 0.0049,-1.323008 0,-1.567033 h 1.13994 l 0.07999,0.980447 c 0.372982,0.218453 0.951212,0.381077 1.424845,0.381077 0.880058,0 1.797725,-0.226984 1.797725,-1.104665 -0.02956,-0.796355 -1.051702,-0.959075 -1.877309,-1.044683 -1.403915,-0.145704 -2.535455,-0.496692 -2.535455,-2.106555 0,-1.434314 1.588255,-2.14937 2.770134,-2.14937 0.951222,-0.02147 1.626003,0.132622 2.485052,0.834903 0,0.578015 -0.0055,0.920564 -0.0055,1.498571 h -1.101745 l -0.07136,-0.950534 c -0.444273,-0.218423 -0.901044,-0.278271 -1.25303,-0.269733 -0.758513,0.0085 -1.567399,0.372544 -1.567399,1.023302 0,0.637974 0.523941,0.813543 1.454249,0.950503 1.517028,0.205662 2.979557,0.556649 2.979557,2.209344 -0.0055,1.806817 -1.667928,2.282095 -3.092796,2.282095 -1.085312,0.0021 -1.764262,-0.201202 -2.623374,-0.967669 z"
     inkscape:connector-curvature="0" />
  <path
     style="fill:#faa41a;stroke-width:0.0423597"
     id="path12"
     d="m 52.912116,69.879127 c 0,0.329683 -0.25979,0.595128 -0.58224,0.595128 h -6.73477 c -0.32273,0 -0.58224,-0.265445 -0.58224,-0.595128 v -0.05119 c 0,-0.329678 0.25951,-0.595141 0.58224,-0.595141 h 6.73477 c 0.32245,0 0.58224,0.265463 0.58224,0.595141 z"
     inkscape:connector-curvature="0" />
</svg>
