<?xml version="1.0" encoding="UTF-8" standalone="no"?>
<svg
   id="svg40"
   version="1.1"
   viewBox="0 0 96 96"
   sodipodi:docname="user-desktop.svg"
   inkscape:version="1.2.1 (9c6d41e410, 2022-07-14)"
   xmlns:inkscape="http://www.inkscape.org/namespaces/inkscape"
   xmlns:sodipodi="http://sodipodi.sourceforge.net/DTD/sodipodi-0.dtd"
   xmlns:xlink="http://www.w3.org/1999/xlink"
   xmlns="http://www.w3.org/2000/svg"
   xmlns:svg="http://www.w3.org/2000/svg"
   xmlns:rdf="http://www.w3.org/1999/02/22-rdf-syntax-ns#"
   xmlns:cc="http://creativecommons.org/ns#"
   xmlns:dc="http://purl.org/dc/elements/1.1/">
  <metadata
     id="metadata43">
    <rdf:RDF>
      <cc:Work
         rdf:about="">
        <dc:format>image/svg+xml</dc:format>
        <dc:type
           rdf:resource="http://purl.org/dc/dcmitype/StillImage" />
      </cc:Work>
    </rdf:RDF>
  </metadata>
  <sodipodi:namedview
     pagecolor="#ffffff"
     bordercolor="#666666"
     borderopacity="1"
     objecttolerance="10"
     gridtolerance="10"
     guidetolerance="10"
     inkscape:pageopacity="0"
     inkscape:pageshadow="2"
     inkscape:window-width="1920"
     inkscape:window-height="1002"
     id="namedview41"
     showgrid="true"
     inkscape:zoom="8.0000005"
     inkscape:cx="35.562498"
     inkscape:cy="50.062497"
     inkscape:window-x="0"
     inkscape:window-y="0"
     inkscape:window-maximized="1"
     inkscape:current-layer="svg40"
     inkscape:document-rotation="0"
     inkscape:showpageshadow="2"
     inkscape:pagecheckerboard="0"
     inkscape:deskcolor="#d1d1d1">
    <inkscape:grid
       type="xygrid"
       id="grid992" />
  </sodipodi:namedview>
  <defs
     id="defs5455">
    <linearGradient
       inkscape:collect="always"
       id="linearGradient4345">
      <stop
         style="stop-color:#4b8bd4;stop-opacity:1;"
         offset="0"
         id="stop4341" />
      <stop
         style="stop-color:#3b6ca7;stop-opacity:1;"
         offset="1"
         id="stop4343" />
    </linearGradient>
    <linearGradient
       id="linearGradient4703"
       x1="418.16971"
       x2="384.57144"
       y1="503.07938"
       y2="531.45813"
       gradientTransform="matrix(.91666628 0 0 .91666628 -340.52366 -455.81464)"
       gradientUnits="userSpaceOnUse">
      <stop
         id="stop4699"
         stop-color="#1abc9c"
         offset="0" />
      <stop
         id="stop4701"
         stop-color="#2980b9"
         offset="1" />
    </linearGradient>
    <linearGradient
       id="linearGradient4532"
       x1="404.0452"
       x2="430.73611"
       y1="521.63281"
       y2="528.35034"
       gradientTransform="matrix(.91666628 0 0 .91666628 -340.52366 -455.81464)"
       gradientUnits="userSpaceOnUse">
      <stop
         id="stop4528"
         stop-color="#cc4a5e"
         offset="0" />
      <stop
         id="stop4530"
         stop-color="#aa478a"
         offset="1" />
    </linearGradient>
    <linearGradient
       id="linearGradient4474"
       x1="398.09201"
       x2="394.00299"
       y1="542.22382"
       y2="524.89966"
       gradientTransform="matrix(.91666628 0 0 .91666628 -340.52366 -455.81464)"
       gradientUnits="userSpaceOnUse"
       xlink:href="#linearGradient4468" />
    <linearGradient
       id="linearGradient4468">
      <stop
         id="stop4470"
         stop-color="#334545"
         offset="0" />
      <stop
         id="stop4472"
         stop-color="#536161"
         offset="1" />
    </linearGradient>
    <linearGradient
       id="linearGradient4500"
       x1="431.57141"
       x2="439.57141"
       y1="568.79803"
       y2="562.79803"
       gradientTransform="matrix(-1,0,0,1,839.14285,-40.00001)"
       gradientUnits="userSpaceOnUse"
       xlink:href="#linearGradient4468" />
    <linearGradient
       id="linearGradient4498"
       x1="406.53735"
       x2="423.31955"
       y1="581.87024"
       y2="572.67786"
       gradientTransform="matrix(-.91666628 0 0 .91666628 428.69029 -492.4813)"
       gradientUnits="userSpaceOnUse"
       xlink:href="#linearGradient4468" />
    <linearGradient
       id="linearGradient4496"
       x1="423.05438"
       x2="431.22452"
       y1="572.33411"
       y2="566.76562"
       gradientTransform="matrix(-.91666628 0 0 .91666628 448.69029 -492.4813)"
       gradientUnits="userSpaceOnUse"
       xlink:href="#linearGradient4468" />
    <linearGradient
       id="linearGradient4492"
       x1="431.3129"
       x2="440.63208"
       y1="577.10217"
       y2="571.44531"
       gradientTransform="matrix(-.91666628 0 0 .91666628 428.69029 -492.4813)"
       gradientUnits="userSpaceOnUse"
       xlink:href="#linearGradient4468" />
    <linearGradient
       id="linearGradient4490"
       x1="430.56738"
       x2="423.74994"
       y1="577.36243"
       y2="591.32782"
       gradientTransform="matrix(-.91666628 0 0 .91666628 428.69029 -492.4813)"
       gradientUnits="userSpaceOnUse"
       xlink:href="#linearGradient4468" />
    <linearGradient
       inkscape:collect="always"
       xlink:href="#linearGradient856-3"
       id="linearGradient986"
       x1="0"
       y1="213.3335"
       x2="512.00098"
       y2="213.3335"
       gradientUnits="userSpaceOnUse" />
    <linearGradient
       inkscape:collect="always"
       id="linearGradient856-3">
      <stop
         style="stop-color:#ff00ff;stop-opacity:1"
         offset="0"
         id="stop852" />
      <stop
         style="stop-color:#ff00ff;stop-opacity:1"
         offset="1"
         id="stop854" />
    </linearGradient>
    <linearGradient
       inkscape:collect="always"
       xlink:href="#linearGradient984"
       id="linearGradient854"
       gradientUnits="userSpaceOnUse"
       x1="0"
       y1="213.3335"
       x2="512.00098"
       y2="213.3335" />
    <linearGradient
       inkscape:collect="always"
       id="linearGradient984">
      <stop
         style="stop-color:#ffff00;stop-opacity:1;"
         offset="0"
         id="stop980" />
      <stop
         style="stop-color:#ff00ff;stop-opacity:1"
         offset="1"
         id="stop982" />
    </linearGradient>
    <linearGradient
       inkscape:collect="always"
       xlink:href="#linearGradient4345"
       id="linearGradient842"
       gradientUnits="userSpaceOnUse"
       x1="0"
       y1="213.3335"
       x2="512.00098"
       y2="213.3335"
       gradientTransform="matrix(1.1601595,0,0,1.0001661,-39.668359,20.459067)" />
    <linearGradient
       inkscape:collect="always"
       xlink:href="#linearGradient4345"
       id="linearGradient937"
       gradientUnits="userSpaceOnUse"
       x1="0"
       y1="213.3335"
       x2="512.00098"
       y2="213.3335" />
    <linearGradient
       inkscape:collect="always"
       xlink:href="#linearGradient4345"
       id="linearGradient848"
       gradientUnits="userSpaceOnUse"
       x1="0"
       y1="213.3335"
       x2="512.00098"
       y2="213.3335"
       gradientTransform="matrix(1,0,0,1.0665844,0,-1.136396)" />
    <linearGradient
       inkscape:collect="always"
       xlink:href="#linearGradient4345"
       id="linearGradient850"
       gradientUnits="userSpaceOnUse"
       x1="0"
       y1="213.3335"
       x2="512.00098"
       y2="213.3335"
       gradientTransform="translate(0,16.057674)" />
    <linearGradient
       inkscape:collect="always"
       xlink:href="#linearGradient4345"
       id="linearGradient922"
       gradientUnits="userSpaceOnUse"
       x1="0"
       y1="213.3335"
       x2="512.00098"
       y2="213.3335" />
    <linearGradient
       inkscape:collect="always"
       xlink:href="#linearGradient984"
       id="linearGradient924"
       gradientUnits="userSpaceOnUse"
       x1="0"
       y1="213.3335"
       x2="512.00098"
       y2="213.3335" />
  </defs>
  <g
     transform="matrix(0.16406218,0,0,0.18630444,5.9999999,5.8293421)"
     id="computer"
     style="fill:url(#linearGradient986);fill-opacity:1">
    <g
       id="g16"
       style="fill:url(#linearGradient854);fill-opacity:1">
      <g
         id="g14"
         style="fill:url(#linearGradient924);fill-opacity:1">
        <path
           style="fill:url(#linearGradient842);fill-opacity:1.0;stroke-width:1.07719"
           id="path4"
           d="m 257.62951,378.91859 h -0.0984 c -5.46436,0 -9.85091,3.82364 -9.85091,8.53442 0,4.71079 4.4852,8.53442 9.94951,8.53442 5.47481,0 9.89967,-3.82363 9.89967,-8.53442 0,-4.71078 -4.42486,-8.53442 -9.89967,-8.53442 z" />
        <path
           style="fill:url(#linearGradient922);fill-opacity:1"
           id="path6"
           d="m 412.1,134.033 c 1.664,1.664 3.849,2.5 6.033,2.5 2.185,0 4.369,-0.836 6.033,-2.5 3.336,-3.337 3.336,-8.73 0,-12.066 L 407.1,104.9 c -3.336,-3.337 -8.73,-3.337 -12.066,0 -3.337,3.337 -3.337,8.73 0,12.066 z"
           sodipodi:nodetypes="cscccccc" />
        <path
           style="fill:url(#linearGradient937);fill-opacity:1"
           id="path8"
           d="m 412.1,185.233 c 1.664,1.664 3.849,2.5 6.033,2.5 2.185,0 4.369,-0.836 6.033,-2.5 3.336,-3.337 3.336,-8.73 0,-12.066 L 355.9,104.9 c -3.337,-3.337 -8.73,-3.337 -12.066,0 -3.337,3.337 -3.337,8.73 0,12.066 z"
           sodipodi:nodetypes="cscccccc" />
        <path
           style="fill:url(#linearGradient848);fill-opacity:1;stroke-width:1.03276"
           id="path10"
           d="M 469.333,17.067 H 42.667 C 20.736,17.067 0,39.183694 0,62.57389 v 327.65473 c 0,23.39126 20.736,45.50796 42.667,45.50796 h 426.667 c 21.931,0 42.667,-22.1167 42.667,-45.50796 V 62.57389 C 512,39.183694 491.264,17.067 469.333,17.067 Z m 25.6,373.16162 c 0,13.27044 -13.158,27.30456 -25.6,27.30456 H 42.667 c -12.442,0 -25.6,-14.03412 -25.6,-27.30456 V 62.57389 c 0,-13.270443 13.158,-27.304561 25.6,-27.304561 h 426.667 c 12.442,0 25.6,14.034118 25.6,27.304561 v 327.65473 z" />
        <path
           style="fill:url(#linearGradient850);fill-opacity:1.0"
           id="path12"
           d="M 469.333,67.257671 H 42.667 c -4.71,0 -8.533,3.823 -8.533,8.533 V 348.85767 c 0,4.71 3.823,8.533 8.533,8.533 h 426.667 c 4.71,0 8.533,-3.823 8.533,-8.533 V 75.790671 c 0,-4.71 -3.823,-8.533 -8.534,-8.533 z M 460.8,340.32467 H 51.2 V 84.324671 h 409.6 z" />
      </g>
    </g>
  </g>
</svg>
