<?xml version="1.0" encoding="UTF-8" standalone="no"?>
<svg
   xmlns:dc="http://purl.org/dc/elements/1.1/"
   xmlns:cc="http://creativecommons.org/ns#"
   xmlns:rdf="http://www.w3.org/1999/02/22-rdf-syntax-ns#"
   xmlns:svg="http://www.w3.org/2000/svg"
   xmlns="http://www.w3.org/2000/svg"
   xmlns:sodipodi="http://sodipodi.sourceforge.net/DTD/sodipodi-0.dtd"
   xmlns:inkscape="http://www.inkscape.org/namespaces/inkscape"
   inkscape:version="1.0.2 (e86c870879, 2021-01-15)"
   sodipodi:docname="system-switch-user.svg"
   id="svg5"
   version="1.1"
   viewBox="0 0 32 32">
  <metadata
     id="metadata9">
    <rdf:RDF>
      <cc:Work
         rdf:about="">
        <dc:format>image/svg+xml</dc:format>
        <dc:type
           rdf:resource="http://purl.org/dc/dcmitype/StillImage" />
      </cc:Work>
    </rdf:RDF>
  </metadata>
  <sodipodi:namedview
     inkscape:document-rotation="0"
     inkscape:current-layer="svg5"
     inkscape:window-maximized="1"
     inkscape:window-y="0"
     inkscape:window-x="0"
     inkscape:cy="9.7788792"
     inkscape:cx="-1.299874"
     inkscape:zoom="14.182499"
     showgrid="false"
     id="namedview7"
     inkscape:window-height="1007"
     inkscape:window-width="1920"
     inkscape:pageshadow="2"
     inkscape:pageopacity="0"
     guidetolerance="10"
     gridtolerance="10"
     objecttolerance="10"
     borderopacity="1"
     bordercolor="#666666"
     pagecolor="#ffffff" />
  <defs
     id="defs3051">
    <style
       id="current-color-scheme"
       type="text/css">
      .ColorScheme-Text {
        color:#eff0f1;
      }
      </style>
  </defs>
  <path
     sodipodi:nodetypes="cccccccccccccscscscccc"
     inkscape:connector-curvature="0"
     style="clip-rule:evenodd;fill:#d3dae3;fill-opacity:1;fill-rule:evenodd;stroke-width:0.00244847;stroke-linejoin:round;stroke-miterlimit:1.41421"
     id="path4-36"
     d="m 15.085075,4.0343239 c -5.075261,0.38703 -9.4182707,4.00295 -10.7008007,8.9187501 -0.50204,1.93489 -0.51429,4.08741 -0.0242,6.00418 1.26416,5.00662 5.6678997,8.67689 10.8156507,9.01569 2.92163,0.19339 5.75876,-0.65312 8.09974,-2.42473 0.63526,-0.47761 1.79044,-1.63256 2.26848,-2.26757 3.57501,-4.72853 3.21208,-11.28913 -0.85886,-15.5459401 -2.51044,-2.61788 -6.01297,-3.97235 -9.59997,-3.70038 z m 1.60898,1.48068 c 1.26334,0.0706 3.06459,0.46063 4.68794,1.409 1.71446,0.99744 3.03629,2.4535401 4.01,4.3825601 1.43806,2.63022 1.45383,6.40957 0.348,8.9447 -0.9087,1.84958 -2.41967,3.80083 -4.34921,5.00574 -1.28894,0.80488 -3.76486,1.31818 -5.52772,1.296 -1.66692,-0.021 -3.71165,-0.44702 -4.93007,-1.20871 -2.2878907,-1.43027 -4.0953407,-3.44722 -4.9900007,-6.02124 -0.65343,-2.51605 -0.51093,-5.2156 0.465,-7.59761 0.62227,-1.51882 1.67002,-2.74975 3.329,-4.1851401 1.5234507,-1.15787 3.5096507,-1.82367 5.1852207,-1.9533 0.33257,-0.0301 0.90686,-0.098 0.95535,-0.098 0.0482,-0.006 0.4173,-0.004 0.81649,0.026 z" />
  <path
     d="m 19.383185,17.392854 3.07151,-3.06997 c 0.0288,-0.0288 0.0448,-0.0678 0.0448,-0.10864 0,-0.0408 -0.0163,-0.0798 -0.0451,-0.10863 l -3.0712,-3.06078 c -0.0439,-0.0439 -0.10986,-0.0568 -0.16725,-0.0331 -0.0574,0.024 -0.0945,0.0798 -0.0945,0.14177 v 1.68781 h -3.83595 c -0.0847,0 -0.15344,0.0687 -0.15344,0.15344 v 2.45501 c 0,0.0847 0.0687,0.15344 0.15344,0.15344 h 3.83596 v 1.68136 c 0,0.062 0.0375,0.11785 0.0948,0.14178 0.0574,0.024 0.12305,0.0104 0.16694,-0.0334 z"
     id="path2-7"
     style="fill:#d3dae3;fill-opacity:1;stroke-width:0.0143849" />
  <path
     d="m 12.648305,14.607154 -3.0715107,3.06997 c -0.0288,0.0288 -0.0448,0.0678 -0.0448,0.10864 0,0.0408 0.0163,0.0798 0.0451,0.10863 l 3.0712007,3.06078 c 0.0439,0.0439 0.10986,0.0568 0.16726,0.0332 0.0574,-0.024 0.0945,-0.0798 0.0945,-0.14178 v -1.68781 h 3.83594 c 0.0847,0 0.15344,-0.0687 0.15344,-0.15344 v -2.45501 c 0,-0.0847 -0.0687,-0.15344 -0.15344,-0.15344 h -3.83596 v -1.68136 c 0,-0.062 -0.0375,-0.11784 -0.0948,-0.14178 -0.0574,-0.024 -0.12304,-0.0104 -0.16693,0.0334 z"
     id="path2-7-5"
     style="fill:#d3dae3;fill-opacity:1;stroke-width:0.0143849" />
</svg>
