<?xml version="1.0" encoding="UTF-8" standalone="no"?>
<svg
   xmlns:dc="http://purl.org/dc/elements/1.1/"
   xmlns:cc="http://creativecommons.org/ns#"
   xmlns:rdf="http://www.w3.org/1999/02/22-rdf-syntax-ns#"
   xmlns:svg="http://www.w3.org/2000/svg"
   xmlns="http://www.w3.org/2000/svg"
   xmlns:xlink="http://www.w3.org/1999/xlink"
   xmlns:sodipodi="http://sodipodi.sourceforge.net/DTD/sodipodi-0.dtd"
   xmlns:inkscape="http://www.inkscape.org/namespaces/inkscape"
   width="32"
   version="1.1"
   height="32"
   viewBox="0 0 32 32"
   id="svg15"
   sodipodi:docname="folder-Pop_OS.svg"
   inkscape:version="1.0.2 (e86c870879, 2021-01-15)">
  <sodipodi:namedview
     pagecolor="#ffffff"
     bordercolor="#666666"
     borderopacity="1"
     objecttolerance="10"
     gridtolerance="10"
     guidetolerance="10"
     inkscape:pageopacity="0"
     inkscape:pageshadow="2"
     inkscape:window-width="1920"
     inkscape:window-height="1007"
     id="namedview17"
     showgrid="false"
     inkscape:zoom="9.8125"
     inkscape:cx="-26.308778"
     inkscape:cy="8.6141759"
     inkscape:window-x="0"
     inkscape:window-y="0"
     inkscape:window-maximized="1"
     inkscape:current-layer="layer1"
     inkscape:document-rotation="0" />
  <defs
     id="defs5455">
    <linearGradient
       inkscape:collect="always"
       xlink:href="#linearGradient836"
       id="linearGradient838"
       x1="6"
       y1="50.000134"
       x2="94.005508"
       y2="50.000134"
       gradientUnits="userSpaceOnUse"
       gradientTransform="matrix(0.9780981,0,0,1,64.250683,974.47294)" />
    <linearGradient
       inkscape:collect="always"
       id="linearGradient836">
      <stop
         style="stop-color:#4b8bd4;stop-opacity:1"
         offset="0"
         id="stop832" />
      <stop
         style="stop-color:#3b6ca7;stop-opacity:1"
         offset="1"
         id="stop834" />
    </linearGradient>
    <linearGradient
       inkscape:collect="always"
       xlink:href="#linearGradient836"
       id="linearGradient882"
       x1="38.886646"
       y1="37.846565"
       x2="42.124203"
       y2="37.846565"
       gradientUnits="userSpaceOnUse"
       gradientTransform="matrix(0.71427038,0,0,0.71427038,377.4389,506.20174)" />
    <linearGradient
       inkscape:collect="always"
       xlink:href="#linearGradient836"
       id="linearGradient866"
       x1="29.485872"
       y1="39.437679"
       x2="33.387089"
       y2="39.437679"
       gradientUnits="userSpaceOnUse"
       gradientTransform="matrix(0.71427038,0,0,0.71427038,377.4389,506.20174)" />
    <linearGradient
       inkscape:collect="always"
       xlink:href="#linearGradient836"
       id="linearGradient874"
       x1="34.126762"
       y1="39.295525"
       x2="38.177818"
       y2="39.295525"
       gradientUnits="userSpaceOnUse"
       gradientTransform="matrix(0.71427038,0,0,0.71427038,377.4389,506.20174)" />
    <linearGradient
       inkscape:collect="always"
       xlink:href="#linearGradient836"
       id="linearGradient858"
       x1="21.886"
       y1="38.515591"
       x2="28.731234"
       y2="38.515591"
       gradientUnits="userSpaceOnUse"
       gradientTransform="matrix(0.71427038,0,0,0.71427038,377.4389,506.20174)" />
  </defs>
  <metadata
     id="metadata5458">
    <rdf:RDF>
      <cc:Work
         rdf:about="">
        <dc:format>image/svg+xml</dc:format>
        <dc:type
           rdf:resource="http://purl.org/dc/dcmitype/StillImage" />
      </cc:Work>
    </rdf:RDF>
  </metadata>
  <g
     inkscape:label="Capa 1"
     inkscape:groupmode="layer"
     id="layer1"
     transform="translate(-384.57143,-515.798)">
    <g
       transform="matrix(0.36013848,0,0,0.37142583,359.81878,151.2823)"
       id="g4">
      <path
         style="color:#000000;font-style:normal;font-variant:normal;font-weight:normal;font-stretch:normal;font-size:medium;line-height:normal;font-family:Sans;-inkscape-font-specification:Sans;text-indent:0;text-align:start;text-decoration:none;text-decoration-line:none;letter-spacing:normal;word-spacing:normal;text-transform:none;writing-mode:lr-tb;direction:ltr;baseline-shift:baseline;text-anchor:start;display:inline;overflow:visible;visibility:visible;opacity:1;fill:url(#linearGradient838);fill-opacity:1;fill-rule:nonzero;stroke:none;stroke-width:3.95596;marker:none;enable-background:accumulate"
         d="m 77.516136,989.47294 c -3.988712,0 -7.396866,2.85993 -7.396866,6.65625 v 56.01651 c 0,2.3649 0.836461,3.8844 2.460429,5.2631 1.623967,1.3787 3.30936,2.0641 5.459931,2.0641 h 68.3709 c 1.64145,0.029 1.59477,-2.2249 3.9e-4,-2.2488 l -68.465873,-0.04 c -2.115981,0 -3.874159,-1.4929 -3.874159,-1.4929 0,0 -1.620163,-1.2165 -1.620163,-3.5457 v -56.01651 c 0,-2.61614 1.77916,-4.29462 4.886948,-4.26047 l 24.066557,-0.0121 11.47627,10.23088 c 0.34679,0.3129 0.79077,0.759 1.25317,0.769 l 33.37023,-0.012 c 1.7015,-0.01 1.64773,-2.3444 -0.0538,-2.3717 h -32.61346 l -12.1651,-10.53119 c -0.35109,-0.30157 -0.79464,-0.46748 -1.25318,-0.46875 z m 38.818274,2.90625 c -1.55276,-0.004 -1.55586,2.67092 0.0388,2.69371 l 29.7626,-0.0408 c 3.0158,-0.004 4.32232,0.97316 5.32647,1.90993 1.00416,0.93677 2.53008,3.23017 2.53008,5.59337 v 54.9375 c 0.009,1.8591 2.19838,1.9203 2.20491,0.064 l -0.006,-55.0018 c -3.1e-4,-3.21041 -1.04994,-5.89832 -2.9343,-7.65623 -1.88434,-1.75791 -4.44981,-2.5 -7.12177,-2.5 h -29.61804 c -0.0611,-0.003 -0.12228,-0.003 -0.18339,0 z"
         id="path2-3"
         sodipodi:nodetypes="sssssccscsssccccccccsccsssccssscc" />
    </g>
    <path
       style="fill:url(#linearGradient882);fill-opacity:1.0;stroke-width:0.0141193"
       id="path2-3-3"
       d="m 406.01082,535.46406 c -0.0261,0.11269 -0.0842,0.2126 -0.18156,0.27545 -0.15363,0.0984 -0.34082,0.0699 -0.47355,-0.0499 -0.1243,-0.11122 -0.16619,-0.29967 -0.12707,-0.46228 0.0407,-0.16988 0.16901,-0.31974 0.33384,-0.36683 0.36733,-0.10416 0.51955,0.30399 0.44834,0.6037 z m -0.2249,-1.15883 c -0.22765,-0.0928 -0.1494,-1.31299 0.0582,-2.79448 0.0582,-0.41387 0.15922,-0.60933 0.27237,-0.70923 0.16204,-0.14129 0.45679,-0.14699 0.65656,-0.11703 0.22909,0.0341 0.44835,0.14272 0.61462,0.30686 0.14664,0.14549 0.16343,0.29399 0.11312,0.48661 -0.0826,0.30682 -0.22349,0.60081 -0.35899,0.88767 -0.0323,0.0699 -0.31291,0.61375 -0.35061,0.68084 -0.67749,1.21881 -0.81299,1.33717 -1.00577,1.25876 z" />
    <path
       style="fill:url(#linearGradient866);fill-opacity:1.0;stroke-width:0.0141193"
       id="path4"
       d="m 401.19018,533.75569 c 0.13412,0.58514 0.12016,1.22743 0.008,1.68982 -0.1076,0.43674 -0.39955,0.82777 -0.8633,0.959 -0.40649,0.11569 -0.88003,0.0318 -1.17059,-0.254 -0.47775,-0.46806 -0.7571,-1.56701 -0.63278,-2.36486 0.10061,-0.64079 0.43861,-1.46131 1.18036,-1.49705 0.0474,-0.004 0.0949,-0.002 0.14249,0.004 0.75569,0.0699 1.1678,0.72066 1.33818,1.4642 z m -1.36617,1.33162 c 0.0422,0.0102 0.0841,0.0102 0.12577,-0.008 0.14105,-0.0419 0.22207,-0.19124 0.25984,-0.33682 0.0572,-0.22121 0.0485,-0.45953 -0.0254,-0.67646 -0.0376,-0.1099 -0.0937,-0.21694 -0.17878,-0.29686 -0.30037,-0.28117 -0.60073,0.0119 -0.65239,0.34395 -0.0408,0.25974 0.0176,0.56088 0.17747,0.77068 0.0742,0.0972 0.18013,0.18124 0.29326,0.20123 z" />
    <path
       style="fill:url(#linearGradient874);fill-opacity:1.0;stroke-width:0.0141193"
       id="path6"
       d="m 402.82593,534.99592 c -0.002,1.08041 0.10481,1.90666 -0.36034,2.00523 -0.37718,0.0781 -0.36465,-0.25974 -0.3939,-0.54375 -0.11182,-1.1004 -0.2138,-2.92863 -0.25706,-4.03468 0.031,-0.47519 0.34219,-0.76633 0.66627,-0.83771 0.50006,-0.10987 1.03376,-0.0781 1.47655,0.20128 0.87582,0.55368 0.94562,1.56987 0.41486,2.39904 -0.29055,0.45235 -1.16926,0.78062 -1.54638,0.75213 z m 0.1118,-2.42189 c -0.0549,0.0102 -0.14392,0.0345 -0.169,0.0884 -0.0601,0.127 -0.0558,0.93329 0.0485,1.27159 0.0165,0.0555 0.0547,0.1084 0.10895,0.1284 0.19834,0.0745 0.37713,-0.17403 0.45815,-0.32399 0.11316,-0.20826 0.14944,-0.45381 0.0779,-0.68209 -0.0669,-0.21272 -0.27522,-0.52093 -0.52526,-0.48245 z" />
    <path
       style="fill:url(#linearGradient858);fill-opacity:1.0;stroke-width:0.0141193"
       id="path8"
       d="m 397.81676,533.11061 c -0.32828,0.70934 -0.87305,1.27303 -1.62741,1.55136 0.21654,0.57799 0.43728,1.14884 0.65239,1.7255 0.12012,0.31103 0.23464,0.65212 0.1299,0.95901 -0.10896,0.31399 -0.53369,0.40099 -0.84239,0.0669 -0.59361,-0.64505 -2.601,-4.73253 -2.74907,-5.03931 -0.12564,-0.26403 -0.31426,-0.54658 -0.30863,-0.85204 0.0102,-0.45952 0.70538,-0.92477 1.03931,-1.16319 0.46647,-0.33245 1.00573,-0.55935 1.58264,-0.56084 0.44971,0 0.83391,0.12553 1.17471,0.34824 0.52251,0.34248 0.88565,0.88917 1.01972,1.50712 0.11736,0.54376 0.0923,1.10029 -0.0717,1.45712 m -1.52956,-0.77635 c -0.11736,-0.43537 -0.38279,-0.83641 -0.71662,-1.11758 -0.0729,-0.0617 -0.15084,-0.11834 -0.24167,-0.14983 -0.62578,-0.20978 -0.35478,0.85917 -0.25282,1.1289 0.1411,0.37818 0.3548,0.85631 0.64117,1.14183 0.063,0.0629 0.1369,0.11833 0.22206,0.13551 0.12994,0.0269 0.25005,-0.0652 0.31574,-0.17416 0.0548,-0.0899 0.0753,-0.19693 0.0877,-0.30112 0.0243,-0.22119 0.004,-0.44665 -0.0556,-0.66355 z" />
    <path
       style="fill:#3bb4c4;fill-opacity:1;stroke-width:0.0141193"
       id="path10"
       d="m 405.30031,538.54347 c -0.004,0.62653 -0.37717,1.253 -1.20266,1.253 -0.82565,0 -1.20976,-0.61648 -1.20976,-1.24592 0,-0.78493 0.53499,-1.27009 1.22648,-1.27009 0.8018,0.0102 1.19294,0.61503 1.18594,1.26301 z m -1.18594,-0.86775 c -0.51828,0 -0.80876,0.36824 -0.8116,0.87064 0,0.4367 0.23892,0.84624 0.80185,0.84624 0.56294,0 0.77806,-0.44388 0.77806,-0.85054 0.0102,-0.42252 -0.21235,-0.85634 -0.76831,-0.86634 z m 1.53238,1.79975 c 0,0.0927 0.004,-0.441 0,-0.52236 h 0.37996 l 0.0262,0.32674 c 0.12435,0.073 0.31708,0.12704 0.47494,0.12704 0.29337,0 0.59927,-0.0755 0.59927,-0.36822 -0.0102,-0.26541 -0.35064,-0.31966 -0.62578,-0.3482 -0.46796,-0.0482 -0.84513,-0.16559 -0.84513,-0.70216 0,-0.47807 0.52942,-0.71648 0.92333,-0.71648 0.31709,-0.0102 0.54197,0.0449 0.82835,0.27838 0,0.19257 -0.004,0.3068 -0.004,0.49943 h -0.36727 l -0.0242,-0.31685 c -0.14807,-0.0728 -0.30034,-0.0927 -0.41768,-0.0899 -0.25284,0.004 -0.52243,0.12424 -0.52243,0.34113 0,0.21261 0.17461,0.27119 0.48473,0.31678 0.50564,0.0681 0.99317,0.18563 0.99317,0.73649 -0.004,0.60218 -0.55598,0.76064 -1.03091,0.76064 -0.36178,0.002 -0.58808,-0.0669 -0.87443,-0.32247 z"
       inkscape:connector-curvature="0" />
    <path
       style="fill:#faa41a;stroke-width:0.0141193"
       id="path12"
       d="m 402.37524,539.59102 c 0,0.10985 -0.0863,0.19843 -0.19422,0.19843 h -2.24475 c -0.10748,0 -0.19421,-0.0884 -0.19421,-0.19843 v -0.017 c 0,-0.10986 0.0864,-0.19841 0.19421,-0.19841 h 2.24475 c 0.10768,0 0.19422,0.0883 0.19422,0.19841 z"
       inkscape:connector-curvature="0" />
  </g>
</svg>
