<?xml version="1.0" encoding="UTF-8" standalone="no"?>
<svg
   viewBox="0 0 32 32"
   version="1.1"
   id="svg1"
   sodipodi:docname="dialog-cancel.svg"
   inkscape:version="1.3.2 (091e20ef0f, 2023-11-25)"
   xmlns:inkscape="http://www.inkscape.org/namespaces/inkscape"
   xmlns:sodipodi="http://sodipodi.sourceforge.net/DTD/sodipodi-0.dtd"
   xmlns="http://www.w3.org/2000/svg"
   xmlns:svg="http://www.w3.org/2000/svg">
  <sodipodi:namedview
     id="namedview1"
     pagecolor="#ffffff"
     bordercolor="#000000"
     borderopacity="1"
     inkscape:showpageshadow="2"
     inkscape:pageopacity="0"
     inkscape:pagecheckerboard="0"
     inkscape:deskcolor="#d1d1d1"
     inkscape:zoom="23.875"
     inkscape:cx="16"
     inkscape:cy="16"
     inkscape:window-width="1920"
     inkscape:window-height="996"
     inkscape:window-x="0"
     inkscape:window-y="0"
     inkscape:window-maximized="1"
     inkscape:current-layer="svg1" />
  <defs
     id="defs3051">
    <style
       type="text/css"
       id="current-color-scheme">
      .ColorScheme-Text {
        color:#232629;
      }
      </style>
  </defs>
  <path
     style="fill:currentColor;fill-opacity:1;stroke:none"
     d="M16 4A12 12 0 0 0 7.886719 7.179688L7.885 7.178A12 12 0 0 0 7.847656 7.214844 12 12 0 0 0 4 16 12 12 0 0 0 16 28 12 12 0 0 0 24.11328 24.820312L24.12 24.822A12 12 0 0 0 24.15234 24.785156 12 12 0 0 0 28 16 12 12 0 0 0 16 4M16 5A11 11 0 0 1 27 16 11 11 0 0 1 24.11523 23.408203L8.592 7.885A11 11 0 0 1 16 5M7.885 8.592L23.408 24.12A11 11 0 0 1 16 27 11 11 0 0 1 5 16 11 11 0 0 1 7.884766 8.591797"
     class="ColorScheme-Text"
     id="path1" />
</svg>
