<?xml version="1.0" encoding="UTF-8" standalone="no"?>
<svg
   xmlns:dc="http://purl.org/dc/elements/1.1/"
   xmlns:cc="http://creativecommons.org/ns#"
   xmlns:rdf="http://www.w3.org/1999/02/22-rdf-syntax-ns#"
   xmlns:svg="http://www.w3.org/2000/svg"
   xmlns="http://www.w3.org/2000/svg"
   xmlns:sodipodi="http://sodipodi.sourceforge.net/DTD/sodipodi-0.dtd"
   xmlns:inkscape="http://www.inkscape.org/namespaces/inkscape"
   viewBox="0 0 16 16"
   version="1.1"
   id="svg6"
   sodipodi:docname="folder-Pop_OS.svg"
   inkscape:version="1.0.2 (e86c870879, 2021-01-15)">
  <metadata
     id="metadata10">
    <rdf:RDF>
      <cc:Work
         rdf:about="">
        <dc:format>image/svg+xml</dc:format>
        <dc:type
           rdf:resource="http://purl.org/dc/dcmitype/StillImage" />
      </cc:Work>
    </rdf:RDF>
  </metadata>
  <sodipodi:namedview
     pagecolor="#ffffff"
     bordercolor="#666666"
     borderopacity="1"
     objecttolerance="10"
     gridtolerance="10"
     guidetolerance="10"
     inkscape:pageopacity="0"
     inkscape:pageshadow="2"
     inkscape:window-width="1920"
     inkscape:window-height="1007"
     id="namedview8"
     showgrid="true"
     inkscape:zoom="19.625"
     inkscape:cx="-3.4012499"
     inkscape:cy="5.2873077"
     inkscape:window-x="0"
     inkscape:window-y="0"
     inkscape:window-maximized="1"
     inkscape:current-layer="svg6">
    <inkscape:grid
       type="xygrid"
       id="grid893" />
  </sodipodi:namedview>
  <defs
     id="defs3051">
    <style
       type="text/css"
       id="current-color-scheme">
      .ColorScheme-Text {
        color:#eff0f1;
      }
      </style>
  </defs>
  <path
     style="fill:#eff0f1;fill-opacity:1;stroke-width:0.0148257"
     id="path2-3"
     d="m 14.036711,8.9492903 c -0.02788,0.1183843 -0.08798,0.2232834 -0.19068,0.2892201 -0.161347,0.1033983 -0.357896,0.073444 -0.497235,-0.05245 -0.130533,-0.1168899 -0.174533,-0.3147017 -0.133471,-0.4855367 0.04252,-0.1783267 0.177471,-0.3356775 0.350556,-0.3851258 0.385752,-0.1093958 0.545629,0.3191894 0.47083,0.6338889 z m -0.236145,-1.21683 c -0.239085,-0.097405 -0.156946,-1.3786694 0.06153,-2.9341758 0.06153,-0.4345793 0.167216,-0.6398821 0.286019,-0.7447814 0.170147,-0.1483563 0.479633,-0.154351 0.689382,-0.1228815 0.240548,0.035962 0.47083,0.149855 0.645369,0.3221872 0.154015,0.1528528 0.171611,0.3087032 0.11881,0.5110078 -0.08655,0.3221925 -0.23468,0.6308938 -0.376955,0.9321054 -0.03375,0.073439 -0.328556,0.6443794 -0.36816,0.7148097 -0.711377,1.2797693 -0.853653,1.4041504 -1.056064,1.3217286 z" />
  <path
     style="fill:#eff0f1;fill-opacity:1;stroke-width:0.0148257"
     id="path4-3"
     d="M 8.9749251,7.1555166 C 9.1157336,7.7699267 9.1010658,8.444273 8.980686,8.9298083 8.8677123,9.3883679 8.5611596,9.7989696 8.0741962,9.936838 7.6473704,10.058221 7.1501386,9.969804 6.8450534,9.6700941 6.3434218,9.1785652 6.0500708,8.0246783 6.1806112,7.1869859 6.2862186,6.514135 6.6411725,5.6524615 7.420021,5.614999 7.469901,5.611949 7.519763,5.613649 7.5696314,5.618049 8.3631466,5.691495 8.7958403,6.3748217 8.9747867,7.1555694 Z M 7.5404352,8.5536691 c 0.044006,0.00759 0.088008,0.00759 0.1320139,-0.00611 C 7.8205856,8.5040826 7.90566,8.3467266 7.9452649,8.1938746 8.0054013,7.9615957 7.9966021,7.7113379 7.9188674,7.4835571 7.8792625,7.3681683 7.8205947,7.2557756 7.7311179,7.1718562 7.4157683,6.8766426 7.1004115,7.1838513 7.0461404,7.5330085 c -0.04253,0.272741 0.019065,0.5889352 0.1862813,0.8092234 0.077735,0.1019003 0.1892118,0.1903153 0.3080171,0.2112969 z" />
  <path
     style="fill:#eff0f1;fill-opacity:1;stroke-width:0.0148257"
     id="path6"
     d="m 10.692498,8.457762 c -0.0015,1.1344101 0.110009,2.002073 -0.378428,2.105474 C 9.918051,10.645636 9.931255,10.2905 9.900449,9.992283 9.783109,8.8368953 9.6760362,6.9172447 9.6305658,5.7558621 9.6628469,5.2568443 9.989927,4.9511365 10.330211,4.8762106 c 0.525105,-0.1153886 1.085411,-0.08241 1.55036,0.2112976 0.919662,0.5814373 0.992995,1.6484091 0.435637,2.5190716 -0.305097,0.4750437 -1.227682,0.8197122 -1.62371,0.7897397 z m 0.117347,-2.5430516 c -0.05719,0.00896 -0.15108,0.03596 -0.177486,0.092912 -0.06307,0.1333695 -0.05866,0.9800576 0.05133,1.3352135 0.0176,0.058433 0.05721,0.1138903 0.114411,0.1348733 0.208277,0.077901 0.396029,-0.182826 0.481097,-0.3401766 C 11.397996,6.9187443 11.436135,6.660994 11.361347,6.4212217 11.290936,6.1979363 11.072384,5.8742514 10.80984,5.9147105 Z" />
  <path
     style="fill:#eff0f1;fill-opacity:1;stroke-width:0.0148257"
     id="path8"
     d="M 5.432706,6.4781682 C 5.0880157,7.2229529 4.5159793,7.8148821 3.7239324,8.1071001 3.9512781,8.7140137 4.1830254,9.3134392 4.4089069,9.918858 4.5350507,10.24554 4.6553267,10.603697 4.545315,10.92588 4.4309085,11.255572 3.9850143,11.346981 3.6608596,10.996309 3.037489,10.318958 0.929756,6.0270876 0.77428145,5.7049003 0.64227301,5.4276669 0.44426122,5.1309545 0.45012741,4.8102617 0.46038437,4.327725 1.190838,3.839197 1.5413966,3.5889381 2.0312919,3.2397708 2.5974603,3.0014995 3.2032328,3 3.6755294,3 4.0788863,3.1318748 4.4367772,3.365647 4.985344,3.725302 5.3667026,4.2992513 5.5075098,4.9481248 5.6307173,5.519071 5.6043178,6.103513 5.4326978,6.4781515 M 3.826594,5.662938 C 3.7033836,5.2058769 3.424698,4.7847838 3.0741405,4.4895671 2.9978545,4.4251358 2.9157324,4.3651892 2.8203923,4.3322211 2.1632894,4.1119336 2.4478406,5.2343526 2.554909,5.5175785 2.7030536,5.9146943 2.9274669,6.4167088 3.2281536,6.7164259 3.2941526,6.7823949 3.3718966,6.8408008 3.4613661,6.8587864 3.5977734,6.8872414 3.7239166,6.7898544 3.792852,6.6759599 3.850072,6.5815519 3.872028,6.4691615 3.885257,6.3597682 3.910229,6.1274903 3.888377,5.8907178 3.826589,5.662938 Z" />
  <path
     style="fill:#eff0f1;fill-opacity:1;stroke-width:0.0148257"
     id="path10"
     d="m 13.290643,12.182743 c -0.0036,0.657871 -0.396017,1.31574 -1.262868,1.31574 -0.866863,0 -1.270215,-0.647379 -1.270215,-1.308243 0,-0.824204 0.561767,-1.333715 1.287808,-1.333715 0.84193,0.0071 1.252609,0.645877 1.245275,1.326218 z M 12.045368,11.27163 c -0.544167,0 -0.849255,0.386624 -0.852188,0.914113 0,0.458563 0.250812,0.888646 0.841924,0.888646 0.591098,0 0.816984,-0.466051 0.816984,-0.893136 0.0067,-0.443576 -0.222954,-0.899135 -0.80672,-0.909623 z m 1.609038,1.88968 c 0,0.0974 0.0036,-0.463054 0,-0.548476 h 0.398951 l 0.02788,0.343169 c 0.130535,0.07643 0.332953,0.133376 0.498692,0.133376 0.308024,0 0.629239,-0.07939 0.629239,-0.386632 -0.01017,-0.27873 -0.36815,-0.335677 -0.657106,-0.365647 -0.491367,-0.05095 -0.887392,-0.173834 -0.887392,-0.73729 0,-0.502017 0.555905,-0.752271 0.969524,-0.752271 0.332954,-0.0071 0.569102,0.04646 0.869794,0.292217 0,0.202301 -0.0036,0.322187 -0.0036,0.524486 h -0.385543 l -0.02489,-0.332676 c -0.15548,-0.07642 -0.315355,-0.0974 -0.438564,-0.0944 -0.265481,0.0035 -0.548566,0.130376 -0.548566,0.358155 0,0.22328 0.183347,0.284727 0.508967,0.33268 0.530966,0.07193 1.042864,0.194814 1.042864,0.773255 -0.0036,0.632388 -0.583769,0.798731 -1.082468,0.798731 -0.37989,0.0015 -0.617504,-0.07043 -0.918192,-0.338669 z"
     inkscape:connector-curvature="0" />
  <path
     style="fill:#eff0f1;stroke-width:0.0148257;fill-opacity:1"
     id="path12"
     d="m 10.219252,13.282693 c 0,0.115389 -0.09093,0.208293 -0.203878,0.208293 H 7.6583 c -0.1129454,0 -0.2038829,-0.09288 -0.2038829,-0.208293 v -0.01798 c 0,-0.115388 0.090938,-0.208298 0.2038829,-0.208298 h 2.357074 c 0.112946,0 0.203878,0.09289 0.203878,0.208298 z"
     inkscape:connector-curvature="0" />
</svg>
