<?xml version="1.0" encoding="UTF-8" standalone="no"?>
<svg
   xmlns:dc="http://purl.org/dc/elements/1.1/"
   xmlns:cc="http://creativecommons.org/ns#"
   xmlns:rdf="http://www.w3.org/1999/02/22-rdf-syntax-ns#"
   xmlns:svg="http://www.w3.org/2000/svg"
   xmlns="http://www.w3.org/2000/svg"
   xmlns:sodipodi="http://sodipodi.sourceforge.net/DTD/sodipodi-0.dtd"
   xmlns:inkscape="http://www.inkscape.org/namespaces/inkscape"
   inkscape:version="1.0.2 (e86c870879, 2021-01-15)"
   sodipodi:docname="listitem.svg"
   id="svg2"
   width="113.18325"
   height="146.52753"
   version="1.0">
  <sodipodi:namedview
     inkscape:document-rotation="0"
     inkscape:lockguides="true"
     inkscape:current-layer="svg2"
     inkscape:window-maximized="1"
     inkscape:window-y="0"
     inkscape:window-x="0"
     inkscape:cy="82.33842"
     inkscape:cx="41.140459"
     inkscape:zoom="8.9001172"
     showgrid="false"
     id="namedview58"
     inkscape:window-height="1007"
     inkscape:window-width="1920"
     inkscape:pageshadow="2"
     inkscape:pageopacity="0"
     guidetolerance="10"
     gridtolerance="10"
     objecttolerance="10"
     borderopacity="1"
     bordercolor="#666666"
     pagecolor="#ffffff" />
  <metadata
     id="metadata7">
    <rdf:RDF>
      <cc:Work
         rdf:about="">
        <dc:format>image/svg+xml</dc:format>
        <dc:type
           rdf:resource="http://purl.org/dc/dcmitype/StillImage" />
        <dc:title />
      </cc:Work>
      <cc:Work
         rdf:about="">
        <dc:format>image/svg+xml</dc:format>
        <dc:type
           rdf:resource="http://purl.org/dc/dcmitype/StillImage" />
      </cc:Work>
    </rdf:RDF>
  </metadata>
  <defs
     id="defs5">
    <style
       id="current-color-scheme"
       type="text/css">      
      }</style>
  </defs>
  <g
     id="separator"
     style="opacity:1"
     transform="translate(-2.2574148,-6.1588984)">
    <rect
       class="ColorScheme-ViewBackground"
       transform="scale(1,-1)"
       y="-49"
       x="63"
       height="1"
       width="40"
       id="rect4052"
       style="color:#fcfcfc;opacity:0.2;fill:currentColor;fill-opacity:1;stroke:none" />
    <rect
       style="color:#31363b;opacity:1;fill:#000000;fill-opacity:1;stroke:none"
       id="rect4054"
       width="40"
       height="1"
       x="63"
       y="-49"
       transform="scale(1,-1)"
       class="ColorScheme-ViewText" />
  </g>
  <path
     inkscape:connector-curvature="0"
     id="normal-center"
     d="m 10.742585,50.841447 v 11 h 10.999999 v -11 z"
     style="color:#fcfcfc;opacity:0.05;fill:#2a4c76;fill-opacity:1;fill-rule:nonzero;stroke:none"
     class="ColorScheme-ViewBackground" />
  <path
     inkscape:connector-curvature="0"
     id="normal-right"
     d="m 21.742585,50.841447 v 11 h 2 c 6.68e-4,-0.01835 0,-0.03439 0,-0.05288 v -10.89423 c 0,-0.0185 6.68e-4,-0.03453 0,-0.05288 h -2 z"
     style="color:#fcfcfc;opacity:0.05;fill:#2a4c76;fill-opacity:1;fill-rule:nonzero;stroke:none"
     class="ColorScheme-ViewBackground" />
  <path
     inkscape:connector-curvature="0"
     id="normal-top"
     d="m 10.742585,48.8414 v 2.000047 H 21.742584 V 48.8414 c -0.0041,-6.7e-4 0.0042,0 10e-7,0 h -10.98814 c -0.004,0 -0.008,-6.7e-4 -0.0119,0 z"
     style="color:#fcfcfc;opacity:0.05;fill:#2a4c76;fill-opacity:1;fill-rule:nonzero;stroke:none"
     class="ColorScheme-ViewBackground" />
  <path
     inkscape:connector-curvature="0"
     id="normal-left"
     d="m 8.7428852,50.841447 c -6.7e-4,0.01835 0,0.03439 0,0.05288 v 10.89423 c 0,0.0185 -6.7e-4,0.03453 0,0.05288 h 1.9999998 v -11 H 8.7428852 Z"
     style="color:#fcfcfc;opacity:0.05;fill:#2a4c76;fill-opacity:1;fill-rule:nonzero;stroke:none"
     class="ColorScheme-ViewBackground" />
  <path
     inkscape:connector-curvature="0"
     id="normal-bottom"
     d="m 10.742585,61.841102 v 2 h 11 v -1.999655 z"
     style="color:#fcfcfc;opacity:0.05;fill:#2a4c76;fill-opacity:1;fill-rule:nonzero;stroke:none"
     class="ColorScheme-ViewBackground" />
  <path
     inkscape:connector-curvature="0"
     style="color:#fcfcfc;opacity:0.05;fill:#2a4c76;fill-opacity:1;fill-rule:nonzero;stroke:none"
     d="m 8.7425522,48.8414 v 2.000047 H 10.742323 V 48.8414 c -7.46e-4,-6.7e-4 7.63e-4,0 0,0 H 8.7447092 c -7.28e-4,0 -0.0015,-6.7e-4 -0.0022,0 z"
     id="normal-topleft"
     class="ColorScheme-ViewBackground" />
  <path
     inkscape:connector-curvature="0"
     style="color:#fcfcfc;opacity:0.05;fill:#2a4c76;fill-opacity:1;fill-rule:nonzero;stroke:none"
     d="m 21.742592,48.841745 v 1.999702 h 1.999771 v -1.999702 c -7.46e-4,-6.7e-4 7.63e-4,0 0,0 h -1.997614 c -7.28e-4,0 -0.0015,-6.7e-4 -0.0022,0 z"
     id="normal-topright"
     class="ColorScheme-ViewBackground" />
  <path
     inkscape:connector-curvature="0"
     id="normal-bottomright"
     d="m 21.742592,61.8414 v 1.999702 h 1.999771 V 61.8414 c -7.46e-4,-6.7e-4 7.63e-4,0 0,0 h -1.997614 c -7.28e-4,0 -0.0015,-6.7e-4 -0.0022,0 z"
     style="color:#fcfcfc;opacity:0.05;fill:#2a4c76;fill-opacity:1;fill-rule:nonzero;stroke:none"
     class="ColorScheme-ViewBackground" />
  <path
     inkscape:connector-curvature="0"
     style="color:#fcfcfc;opacity:0.05;fill:#2a4c76;fill-opacity:1;fill-rule:nonzero;stroke:none"
     d="m 8.7425922,61.8414 v 1.999702 H 10.742363 V 61.8414 c -7.46e-4,-6.7e-4 7.63e-4,0 0,0 H 8.7447492 c -7.28e-4,0 -0.0015,-6.7e-4 -0.0022,0 z"
     id="normal-bottomleft"
     class="ColorScheme-ViewBackground" />
  <path
     inkscape:connector-curvature="0"
     id="pressed-center"
     d="M 6.7422852,7.8411166 V 18.841122 H 17.742284 V 7.8411166 Z"
     style="color:#3daee9;opacity:0.05;fill:#2a4c76;fill-opacity:1;fill-rule:nonzero;stroke:none"
     class="ColorScheme-ViewFocus" />
  <path
     inkscape:connector-curvature="0"
     id="pressed-right"
     d="M 17.742285,7.8411166 V 18.841122 h 2 c 6.68e-4,-0.01835 0,-0.0344 0,-0.05289 V 7.8940016 c 0,-0.0185 6.68e-4,-0.03453 0,-0.05288 h -2 z"
     style="color:#3daee9;opacity:0.05;fill:#2a4c76;fill-opacity:1;fill-rule:nonzero;stroke:none"
     class="ColorScheme-ViewFocus" />
  <path
     inkscape:connector-curvature="0"
     id="pressed-top"
     d="m 6.7422852,5.8410696 v 2.000047 H 17.742284 v -2.000047 c -0.0041,-6.7e-4 0.0045,0 3.01e-4,0 H 6.7541452 c -0.004,0 -0.008,-6.7e-4 -0.0119,0 z"
     style="color:#3daee9;opacity:0.05;fill:#2a4c76;fill-opacity:1;fill-rule:nonzero;stroke:none"
     class="ColorScheme-ViewFocus" />
  <path
     inkscape:connector-curvature="0"
     id="pressed-left"
     d="m 4.7425852,7.8411166 c -6.7e-4,0.01835 0,0.03439 0,0.05288 V 18.788227 c 0,0.0185 -6.7e-4,0.03453 0,0.05288 h 2 V 7.8411016 h -2 z"
     style="color:#3daee9;opacity:0.05;fill:#2a4c76;fill-opacity:1;fill-rule:nonzero;stroke:none"
     class="ColorScheme-ViewFocus" />
  <path
     inkscape:connector-curvature="0"
     id="pressed-bottom"
     d="m 6.7425852,18.841102 v 2 H 17.742585 v -2 z"
     style="color:#3daee9;opacity:0.05;fill:#2a4c76;fill-opacity:1;fill-rule:nonzero"
     class="ColorScheme-ViewFocus" />
  <path
     inkscape:connector-curvature="0"
     style="color:#3daee9;opacity:0.05;fill:#2a4c76;fill-opacity:1;fill-rule:nonzero;stroke:none"
     d="m 4.7422522,5.8410696 v 2.000047 h 1.999722 v -2.000047 c -7.45e-4,-6.7e-4 8.18e-4,0 5.5e-5,0 h -1.997621 c -7.27e-4,0 -0.0015,-6.7e-4 -0.0022,0 z"
     id="pressed-topleft"
     class="ColorScheme-ViewFocus" />
  <path
     inkscape:connector-curvature="0"
     id="pressed-topright"
     d="m 17.742629,5.8410696 v 2.000047 h 1.999722 v -2.000047 c -7.45e-4,-6.7e-4 8.18e-4,0 5.5e-5,0 h -1.997621 c -7.27e-4,0 -0.0015,-6.7e-4 -0.0022,0 z"
     style="color:#3daee9;opacity:0.05;fill:#2a4c76;fill-opacity:1;fill-rule:nonzero;stroke:none"
     class="ColorScheme-ViewFocus" />
  <path
     inkscape:connector-curvature="0"
     style="color:#3daee9;opacity:0.05;fill:#2a4c76;fill-opacity:1;fill-rule:nonzero;stroke:none"
     d="m 17.742629,18.841055 v 2.000047 h 1.999722 v -2.000047 c -7.45e-4,-6.7e-4 8.18e-4,0 5.5e-5,0 h -1.997621 c -7.27e-4,0 -0.0015,-6.7e-4 -0.0022,0 z"
     id="pressed-bottomright"
     class="ColorScheme-ViewFocus" />
  <path
     inkscape:connector-curvature="0"
     id="pressed-bottomleft"
     d="m 4.7426292,18.841055 v 2.000047 h 1.999722 v -2.000047 c -7.45e-4,-6.7e-4 8.18e-4,0 5.5e-5,0 h -1.997621 c -7.27e-4,0 -0.0015,-6.7e-4 -0.0022,0 z"
     style="color:#3daee9;opacity:0.05;fill:#2a4c76;fill-opacity:1;fill-rule:nonzero;stroke:none"
     class="ColorScheme-ViewFocus" />
  <path
     inkscape:connector-curvature="0"
     id="section-center"
     d="m 8.7422852,85.841102 v 11 H 19.742284 v -11 z"
     style="color:#fcfcfc;opacity:0.05;fill:#2a4c76;fill-opacity:1;fill-rule:nonzero;stroke:none"
     class="ColorScheme-ViewBackground" />
  <path
     inkscape:connector-curvature="0"
     id="section-right"
     d="m 19.742285,85.841102 v 11 h 2 c 6.68e-4,-0.0183 0,-0.0344 0,-0.0529 v -10.89423 c 0,-0.0185 6.68e-4,-0.03453 0,-0.05288 h -2 z"
     style="color:#fcfcfc;opacity:0.05;fill:#2a4c76;fill-opacity:1;fill-rule:nonzero;stroke:none"
     class="ColorScheme-ViewBackground" />
  <path
     inkscape:connector-curvature="0"
     id="section-top"
     d="m 8.7422852,83.841055 v 2.000047 H 19.742284 v -2.000047 c -0.0041,-6.7e-4 0.0042,0 10e-7,0 H 8.7541452 c -0.004,0 -0.008,-6.7e-4 -0.0119,0 z"
     style="color:#fcfcfc;opacity:0.05;fill:#2a4c76;fill-opacity:1;fill-rule:nonzero;stroke:none"
     class="ColorScheme-ViewBackground" />
  <path
     inkscape:connector-curvature="0"
     id="section-left"
     d="m 6.7425852,85.841102 c -6.7e-4,0.01835 0,0.03439 0,0.05288 v 10.89423 c 0,0.0185 -6.7e-4,0.0345 0,0.0529 h 2 v -11 h -2 z"
     style="color:#fcfcfc;opacity:0.05;fill:#2a4c76;fill-opacity:1;fill-rule:nonzero;stroke:none"
     class="ColorScheme-ViewBackground" />
  <path
     inkscape:connector-curvature="0"
     id="section-bottom"
     d="m 8.7422852,96.840762 v 2 H 19.742285 v -1.99966 z"
     style="color:#fcfcfc;opacity:0.05;fill:#2a4c76;fill-opacity:1;fill-rule:nonzero;stroke:none"
     class="ColorScheme-ViewBackground" />
  <g
     transform="translate(-13.257415,-2.1588984)"
     style="opacity:0.05;fill:#2a4c76;fill-opacity:1"
     id="g872">
    <path
       inkscape:connector-curvature="0"
       class="ColorScheme-ViewBackground"
       id="section-topleft"
       d="M 19.999667,85.999953 V 88 h 1.999771 v -2.000047 c -7.46e-4,-6.7e-4 7.63e-4,0 0,0 h -1.997614 c -7.28e-4,0 -0.0015,-6.7e-4 -0.0022,0 z"
       style="color:#fcfcfc;opacity:1;fill:#2a4c76;fill-opacity:1;fill-rule:nonzero;stroke:none" />
  </g>
  <path
     inkscape:connector-curvature="0"
     style="color:#fcfcfc;opacity:0.05;fill:#2a4c76;fill-opacity:1;fill-rule:nonzero;stroke:none"
     d="m 19.742292,83.8414 v 1.999702 h 1.999771 V 83.8414 c -7.46e-4,-6.7e-4 7.63e-4,0 0,0 h -1.997614 c -7.28e-4,0 -0.0015,-6.7e-4 -0.0022,0 z"
     id="section-topright"
     class="ColorScheme-ViewBackground" />
  <path
     inkscape:connector-curvature="0"
     id="section-bottomright"
     d="m 19.742292,96.841052 v 1.99971 h 1.999771 v -1.99971 c -7.46e-4,-6.7e-4 7.63e-4,0 0,0 h -1.997614 c -7.28e-4,0 -0.0015,-6.7e-4 -0.0022,0 z"
     style="color:#fcfcfc;opacity:0.05;fill:#2a4c76;fill-opacity:1;fill-rule:nonzero;stroke:none"
     class="ColorScheme-ViewBackground" />
  <path
     inkscape:connector-curvature="0"
     style="color:#fcfcfc;opacity:0.05;fill:#2a4c76;fill-opacity:1;fill-rule:nonzero;stroke:none"
     d="m 6.7422922,96.841052 v 1.99971 h 1.999771 v -1.99971 c -7.46e-4,-6.7e-4 7.63e-4,0 0,0 h -1.997614 c -7.28e-4,0 -0.0015,-6.7e-4 -0.0022,0 z"
     id="section-bottomleft"
     class="ColorScheme-ViewBackground" />
  <path
     inkscape:connector-curvature="0"
     id="hover-center"
     d="M 46.742285,5.2252593 V 16.225265 H 57.742284 V 5.2252593 Z"
     style="color:#3daee9;opacity:0.05;fill:#2a4c76;fill-opacity:1;fill-rule:nonzero;stroke:none"
     class="ColorScheme-ViewFocus" />
  <path
     inkscape:connector-curvature="0"
     id="hover-right"
     d="M 57.742285,5.2252593 V 16.225265 h 2 c 6.68e-4,-0.01835 0,-0.0344 0,-0.05289 V 5.2781443 c 0,-0.0185 6.68e-4,-0.03453 0,-0.05288 h -2 z"
     style="color:#3daee9;opacity:0.05;fill:#2a4c76;fill-opacity:1;fill-rule:nonzero;stroke:none"
     class="ColorScheme-ViewFocus" />
  <path
     inkscape:connector-curvature="0"
     id="hover-top"
     d="m 46.742285,3.2252123 v 2.000047 h 10.999999 v -2.000047 c -0.0041,-6.7e-4 0.0045,0 3.01e-4,0 h -10.98844 c -0.004,0 -0.008,-6.7e-4 -0.0119,0 z"
     style="color:#3daee9;opacity:0.05;fill:#2a4c76;fill-opacity:1;fill-rule:nonzero;stroke:none"
     class="ColorScheme-ViewFocus" />
  <path
     inkscape:connector-curvature="0"
     id="hover-left"
     d="m 44.742585,5.2252593 c -6.7e-4,0.01835 0,0.03439 0,0.05288 V 16.17237 c 0,0.0185 -6.7e-4,0.03453 0,0.05288 h 2 V 5.2252443 h -2 z"
     style="color:#3daee9;opacity:0.05;fill:#2a4c76;fill-opacity:1;fill-rule:nonzero;stroke:none"
     class="ColorScheme-ViewFocus" />
  <path
     inkscape:connector-curvature="0"
     id="hover-bottom"
     d="m 46.742585,16.225245 v 2 h 11 v -2 z"
     style="color:#3daee9;opacity:0.05;fill:#2a4c76;fill-opacity:1;fill-rule:nonzero"
     class="ColorScheme-ViewFocus" />
  <path
     inkscape:connector-curvature="0"
     style="color:#3daee9;opacity:0.05;fill:#2a4c76;fill-opacity:1;fill-rule:nonzero;stroke:none"
     d="m 44.742252,3.2252123 v 2.000047 h 1.999722 v -2.000047 c -7.45e-4,-6.7e-4 8.18e-4,0 5.5e-5,0 h -1.997621 c -7.27e-4,0 -0.0015,-6.7e-4 -0.0022,0 z"
     id="hover-topleft"
     class="ColorScheme-ViewFocus" />
  <path
     inkscape:connector-curvature="0"
     id="hover-topright"
     d="m 57.742629,3.2252123 v 2.000047 h 1.999722 v -2.000047 c -7.45e-4,-6.7e-4 8.18e-4,0 5.5e-5,0 h -1.997621 c -7.27e-4,0 -0.0015,-6.7e-4 -0.0022,0 z"
     style="color:#3daee9;opacity:0.05;fill:#2a4c76;fill-opacity:1;fill-rule:nonzero;stroke:none"
     class="ColorScheme-ViewFocus" />
  <path
     inkscape:connector-curvature="0"
     style="color:#3daee9;opacity:0.05;fill:#2a4c76;fill-opacity:1;fill-rule:nonzero;stroke:none"
     d="m 57.742629,16.225198 v 2.000047 h 1.999722 v -2.000047 c -7.45e-4,-6.7e-4 8.18e-4,0 5.5e-5,0 h -1.997621 c -7.27e-4,0 -0.0015,-6.7e-4 -0.0022,0 z"
     id="hover-bottomright"
     class="ColorScheme-ViewFocus" />
  <path
     inkscape:connector-curvature="0"
     id="hover-bottomleft"
     d="m 44.742629,16.225198 v 2.000047 h 1.999722 v -2.000047 c -7.45e-4,-6.7e-4 8.18e-4,0 5.5e-5,0 h -1.997621 c -7.27e-4,0 -0.0015,-6.7e-4 -0.0022,0 z"
     style="color:#3daee9;opacity:0.05;fill:#2a4c76;fill-opacity:1;fill-rule:nonzero;stroke:none"
     class="ColorScheme-ViewFocus" />
  <rect
     y="141.52753"
     x="108.18325"
     height="5"
     width="5"
     id="hint-stretch-borders"
     style="opacity:0.01;fill:#4e9fac;fill-opacity:1;stroke:none" />
</svg>
