<?xml version="1.0" encoding="UTF-8" standalone="no"?>
<svg
   xmlns:dc="http://purl.org/dc/elements/1.1/"
   xmlns:cc="http://creativecommons.org/ns#"
   xmlns:rdf="http://www.w3.org/1999/02/22-rdf-syntax-ns#"
   xmlns:svg="http://www.w3.org/2000/svg"
   xmlns="http://www.w3.org/2000/svg"
   xmlns:sodipodi="http://sodipodi.sourceforge.net/DTD/sodipodi-0.dtd"
   xmlns:inkscape="http://www.inkscape.org/namespaces/inkscape"
   sodipodi:docname="restart_primary.svg"
   inkscape:version="1.0.2 (e86c870879, 2021-01-15)"
   width="32"
   height="32"
   viewBox="0 0 32 32"
   version="1.1"
   id="SVGRoot">
  <defs
     id="defs993" />
  <sodipodi:namedview
     inkscape:window-maximized="1"
     inkscape:window-y="0"
     inkscape:window-x="0"
     inkscape:window-height="1007"
     inkscape:window-width="1920"
     showgrid="true"
     inkscape:document-rotation="0"
     inkscape:current-layer="layer1"
     inkscape:document-units="px"
     inkscape:cy="16.048607"
     inkscape:cx="47.5"
     inkscape:zoom="8"
     inkscape:pageshadow="2"
     inkscape:pageopacity="0.0"
     borderopacity="1.0"
     bordercolor="#666666"
     pagecolor="#ffffff"
     id="base">
    <inkscape:grid
       originy="27.425"
       originx="43.275"
       type="xygrid"
       id="grid1563" />
  </sodipodi:namedview>
  <metadata
     id="metadata996">
    <rdf:RDF>
      <cc:Work
         rdf:about="">
        <dc:format>image/svg+xml</dc:format>
        <dc:type
           rdf:resource="http://purl.org/dc/dcmitype/StillImage" />
        <dc:title />
      </cc:Work>
    </rdf:RDF>
  </metadata>
  <g
     transform="translate(43.275,27.425)"
     id="layer1"
     inkscape:groupmode="layer"
     inkscape:label="Layer 1">
    <g
       id="system-reboot-3"
       transform="translate(-90.275,-27.425)">
      <g
         id="g1644">
        <path
           style="color:#000000;overflow:visible;opacity:0;fill:none;fill-opacity:1;stroke-width:1.06667"
           id="path940-6"
           overflow="visible"
           d="M 63,0 C 54.17141,0 47,7.1714133 47,16 47,24.828587 54.17141,32 63,32 71.82752,32 79,24.828587 79,16 79,7.17248 71.82859,0 63,0 Z"
           inkscape:connector-curvature="0" />
      </g>
    </g>
    <path
       d="m -18.913856,-19.928924 5.268044,2.679267 -1.591759,0.780987 c 0.656083,1.549638 1.024264,3.252699 1.024264,5.043791 0,7.1776808 -5.818936,12.999879 -12.999873,12.999879 -2.300447,0 -4.459713,-0.603978 -6.333837,-1.653027 l 1.314931,-1.314617 c 1.51149,0.758298 3.211209,1.1959172 5.018906,1.1959172 6.20096,0 11.225398,-5.0272532 11.225398,-11.2256542 0,-1.663385 -0.384812,-3.230717 -1.035334,-4.650478 z m -8.477357,2.758131 z m 0,0 z m 0.180816,-5.482601 c -6.200963,0 -11.225401,5.02766 -11.225401,11.228515 0,1.663431 0.384804,3.230472 1.035338,4.650235 l 1.893507,3.853568 -5.268047,-2.6796394 1.591763,-0.7808166 c -0.656081,-1.550093 -1.024268,-3.252744 -1.024268,-5.043347 -0.0026,-7.178662 5.818939,-13.000121 12.997108,-13.000121 2.300444,0 4.459715,0.603284 6.333839,1.652412 l -1.314936,1.315194 c -1.511483,-0.758468 -3.213978,-1.196 -5.018903,-1.196 z"
       id="path4-9"
       sodipodi:nodetypes="cccssccsscccccccccccccccccccccccccccsscccccscc"
       style="fill:#d3dae3;fill-opacity:1;stroke-width:0.0276824" />
  </g>
</svg>
