<?xml version="1.0" encoding="UTF-8" standalone="no"?>
<svg
   xmlns:dc="http://purl.org/dc/elements/1.1/"
   xmlns:cc="http://creativecommons.org/ns#"
   xmlns:rdf="http://www.w3.org/1999/02/22-rdf-syntax-ns#"
   xmlns:svg="http://www.w3.org/2000/svg"
   xmlns="http://www.w3.org/2000/svg"
   xmlns:sodipodi="http://sodipodi.sourceforge.net/DTD/sodipodi-0.dtd"
   xmlns:inkscape="http://www.inkscape.org/namespaces/inkscape"
   sodipodi:docname="suspend_primary.svg"
   inkscape:version="1.0.2 (e86c870879, 2021-01-15)"
   id="svg2343"
   version="1.1"
   viewBox="0 0 8.4666662 8.4666662"
   height="8.4666662mm"
   width="8.4666662mm">
  <defs
     id="defs2337" />
  <sodipodi:namedview
     inkscape:document-rotation="0"
     inkscape:window-maximized="1"
     inkscape:window-y="0"
     inkscape:window-x="0"
     inkscape:window-height="1007"
     inkscape:window-width="1920"
     showgrid="true"
     inkscape:current-layer="layer1"
     inkscape:document-units="mm"
     inkscape:cy="12.344414"
     inkscape:cx="16.103333"
     inkscape:zoom="11.2"
     inkscape:pageshadow="2"
     inkscape:pageopacity="0.0"
     borderopacity="1.0"
     bordercolor="#666666"
     pagecolor="#ffffff"
     id="base">
    <inkscape:grid
       type="xygrid"
       id="grid842" />
  </sodipodi:namedview>
  <metadata
     id="metadata2340">
    <rdf:RDF>
      <cc:Work
         rdf:about="">
        <dc:format>image/svg+xml</dc:format>
        <dc:type
           rdf:resource="http://purl.org/dc/dcmitype/StillImage" />
        <dc:title />
      </cc:Work>
    </rdf:RDF>
  </metadata>
  <g
     transform="translate(-95.662116,-128.16315)"
     id="layer1"
     inkscape:groupmode="layer"
     inkscape:label="Layer 1">
    <g
       id="system-suspend"
       transform="matrix(0.26458333,0,0,0.26458333,58.355866,128.16315)">
      <g
         id="g1680">
        <circle
           style="opacity:0;fill:#000000;fill-opacity:1;stroke-width:1.06667"
           id="circle949"
           r="16"
           cy="16"
           cx="157" />
      </g>
    </g>
    <path
       d="m 100.77333,129.19147 0.25094,0.50886 0.56128,0.0818 -0.40611,0.3963 0.0958,0.55916 -0.50257,-0.26417 -0.50256,0.26417 0.0958,-0.55916 -0.40611,-0.3963 0.56128,-0.0818 z"
       id="path6"
       style="fill:#d3dae3;fill-opacity:1;stroke-width:0.00698979" />
    <path
       d="m 101.73255,130.29242 h 1.0172 l -1.11653,1.26717 c -0.0322,0.0364 -0.0391,0.0875 -0.0178,0.13016 0.0213,0.0429 0.067,0.0703 0.11718,0.0703 h 1.29333 c 0.0714,0 0.12934,-0.0547 0.12934,-0.1223 0,-0.0677 -0.058,-0.12235 -0.12934,-0.12235 h -1.01721 l 1.11654,-1.26722 c 0.0322,-0.0363 0.0391,-0.0874 0.0178,-0.13016 -0.0213,-0.0428 -0.067,-0.0703 -0.11717,-0.0703 h -1.29333 c -0.0714,0 -0.12934,0.0548 -0.12934,0.12235 0,0.0676 0.058,0.12235 0.12934,0.12235 z"
       id="path4-5"
       style="fill:#d3dae3;fill-opacity:1;stroke-width:0.125783"
       inkscape:transform-center-x="5.0898612"
       inkscape:transform-center-y="13.307164" />
    <path
       d="m 100.14789,131.96008 h 0.48234 l -0.67066,0.95161 c -0.0464,0.0659 -0.0507,0.15007 -0.0113,0.21968 0.0394,0.0695 0.11611,0.11303 0.19963,0.11303 h 0.90539 c 0.12494,0 0.22635,-0.0959 0.22635,-0.21411 0,-0.11815 -0.1014,-0.21406 -0.22635,-0.21406 h -0.48235 l 0.67067,-0.95162 c 0.0464,-0.0659 0.0507,-0.15007 0.0113,-0.21967 -0.0394,-0.0695 -0.11612,-0.11304 -0.19964,-0.11304 h -0.90539 c -0.12495,0 -0.22635,0.0959 -0.22635,0.21411 0,0.11816 0.1014,0.21407 0.22635,0.21407 z"
       id="path8-3"
       style="fill:#d3dae3;fill-opacity:1;stroke-width:0.220134" />
    <path
       d="m 98.898143,131.1314 c 0,-0.82239 0.289298,-1.57698 0.770969,-2.16825 -1.742515,0.16179 -3.106996,1.62916 -3.106996,3.4172 0,1.8961 1.534483,3.4328 3.426114,3.4328 1.07071,0 2.17498,-0.49283 2.80279,-1.26456 -0.10514,0.009 -0.35939,0.0162 -0.46751,0.0162 -1.89163,0 -3.425367,-1.53749 -3.425367,-3.43359 z m 1.090087,4.28445 c -1.589639,-0.0554 -2.971732,-1.31389 -2.971732,-3.0355 0,-1.37793 0.541147,-2.07035 1.899737,-2.87605 -0.270664,0.52639 -0.443253,1.02985 -0.443253,1.6271 0,1.95501 1.388237,3.56479 3.296278,3.73108 -0.56294,0.39968 -1.06268,0.57844 -1.78103,0.55337 z"
       id="path12"
       style="fill:#d3dae3;fill-opacity:1;stroke-width:0.0074562"
       sodipodi:nodetypes="scsscssssscscs" />
  </g>
</svg>
