<?xml version="1.0" encoding="UTF-8" standalone="no"?>
<svg
   xmlns:dc="http://purl.org/dc/elements/1.1/"
   xmlns:cc="http://creativecommons.org/ns#"
   xmlns:rdf="http://www.w3.org/1999/02/22-rdf-syntax-ns#"
   xmlns:svg="http://www.w3.org/2000/svg"
   xmlns="http://www.w3.org/2000/svg"
   xmlns:sodipodi="http://sodipodi.sourceforge.net/DTD/sodipodi-0.dtd"
   xmlns:inkscape="http://www.inkscape.org/namespaces/inkscape"
   inkscape:version="1.0.2 (e86c870879, 2021-01-15)"
   sodipodi:docname="system-lock-screen.svg"
   id="svg6"
   version="1.1"
   viewBox="0 0 32 32">
  <metadata
     id="metadata10">
    <rdf:RDF>
      <cc:Work
         rdf:about="">
        <dc:format>image/svg+xml</dc:format>
        <dc:type
           rdf:resource="http://purl.org/dc/dcmitype/StillImage" />
      </cc:Work>
    </rdf:RDF>
  </metadata>
  <sodipodi:namedview
     inkscape:document-rotation="0"
     inkscape:current-layer="svg6"
     inkscape:window-maximized="1"
     inkscape:window-y="0"
     inkscape:window-x="0"
     inkscape:cy="11.784614"
     inkscape:cx="6.5833954"
     inkscape:zoom="7.0912495"
     showgrid="true"
     id="namedview8"
     inkscape:window-height="1007"
     inkscape:window-width="1920"
     inkscape:pageshadow="2"
     inkscape:pageopacity="0"
     guidetolerance="10"
     gridtolerance="10"
     objecttolerance="10"
     borderopacity="1"
     bordercolor="#666666"
     pagecolor="#ffffff">
    <inkscape:grid
       type="xygrid"
       id="grid862" />
  </sodipodi:namedview>
  <defs
     id="defs3051">
    <style
       id="current-color-scheme"
       type="text/css">
      .ColorScheme-Text {
        color:#eff0f1;
      }
      </style>
  </defs>
  <path
     sodipodi:nodetypes="cccccccccccccscscscccc"
     inkscape:connector-curvature="0"
     style="clip-rule:evenodd;fill:#d3dae3;fill-opacity:1;fill-rule:evenodd;stroke-width:0.00244847;stroke-linejoin:round;stroke-miterlimit:1.41421"
     id="path4-3"
     d="m 15.085074,4.0343239 c -5.07526,0.38703 -9.4182697,4.00295 -10.7007997,8.9187501 -0.50204,1.93489 -0.51429,4.08741 -0.0242,6.00418 1.26416,5.00662 5.6678997,8.67689 10.8156497,9.01569 2.92163,0.19339 5.75876,-0.65312 8.09974,-2.42473 0.63526,-0.47761 1.79044,-1.63256 2.26848,-2.26757 3.57501,-4.72853 3.21208,-11.28913 -0.85886,-15.5459401 -2.51044,-2.61788 -6.01297,-3.97235 -9.59997,-3.70038 z m 1.60898,1.48068 c 1.26334,0.0706 3.06459,0.46063 4.68794,1.409 1.71446,0.99744 3.03629,2.4535401 4.01,4.3825601 1.43805,2.63022 1.45383,6.40957 0.348,8.9447 -0.9087,1.84958 -2.41967,3.80083 -4.34921,5.00574 -1.28894,0.80488 -3.76486,1.31818 -5.52772,1.296 -1.66692,-0.021 -3.71165,-0.44702 -4.93007,-1.20871 -2.2878897,-1.43027 -4.0953397,-3.44722 -4.9899997,-6.02124 -0.65343,-2.51605 -0.51093,-5.2156 0.465,-7.59761 0.62227,-1.51882 1.67002,-2.7497501 3.329,-4.1851301 1.5234497,-1.15788 3.5096397,-1.82368 5.1852197,-1.95331 0.33257,-0.0301 0.90686,-0.098 0.95535,-0.098 0.0482,-0.006 0.4173,-0.004 0.81649,0.026 z" />
  <path
     d="m 15.866424,17.935064 v 0 c -0.21375,-0.0755 -0.36664,-0.27939 -0.36664,-0.5188 0,-0.30358 0.24638,-0.54996 0.54996,-0.54996 0.30358,0 0.54997,0.24638 0.54997,0.54996 0,0.23941 -0.15289,0.44327 -0.36665,0.5188 v 0.95107 c 0,0.0964 -0.0821,0.18002 -0.18332,0.18002 -0.0983,0 -0.18332,-0.0807 -0.18332,-0.18002 z m -2.5665,-2.90198 v 0 0 c -0.6079,0.002 -1.09993,0.4913 -1.09993,1.10322 v 3.65947 c 0,0.60936 0.4935,1.10323 1.10323,1.10323 h 5.49305 c 0.60936,0 1.10322,-0.49021 1.10322,-1.10323 v -3.65947 c 0,-0.60825 -0.49166,-1.10175 -1.09992,-1.10322 v -1.28362 c 0,-1.51864 -1.23412,-2.74946 -2.74983,-2.74946 -1.51863,0 -2.74982,1.23082 -2.74982,2.74946 z m 1.09993,0 v -1.28289 c 0,-0.91367 0.73879,-1.65026 1.64989,-1.65026 0.90928,0 1.6499,0.73879 1.6499,1.65026 v 1.28289 z"
     id="path4-6"
     style="fill:#d3dae3;fill-opacity:1;stroke-width:0.366643" />
</svg>
