<?xml version="1.0" encoding="UTF-8" standalone="no"?>
<svg
   width="31.999998"
   height="31.999998"
   viewBox="0 0 8.466666 8.4666664"
   version="1.1"
   id="svg847"
   inkscape:version="1.1.2 (0a00cf5339, 2022-02-04)"
   sodipodi:docname="activities.svg"
   xmlns:inkscape="http://www.inkscape.org/namespaces/inkscape"
   xmlns:sodipodi="http://sodipodi.sourceforge.net/DTD/sodipodi-0.dtd"
   xmlns="http://www.w3.org/2000/svg"
   xmlns:svg="http://www.w3.org/2000/svg"
   xmlns:rdf="http://www.w3.org/1999/02/22-rdf-syntax-ns#"
   xmlns:cc="http://creativecommons.org/ns#"
   xmlns:dc="http://purl.org/dc/elements/1.1/">
  <defs
     id="defs841" />
  <sodipodi:namedview
     id="base"
     pagecolor="#ffffff"
     bordercolor="#000000"
     borderopacity="1"
     inkscape:pageopacity="0.0"
     inkscape:pageshadow="2"
     inkscape:zoom="8.0000004"
     inkscape:cx="19.624999"
     inkscape:cy="15.499999"
     inkscape:document-units="px"
     inkscape:current-layer="layer1"
     inkscape:document-rotation="0"
     showgrid="false"
     units="px"
     inkscape:window-width="1920"
     inkscape:window-height="1009"
     inkscape:window-x="0"
     inkscape:window-y="0"
     inkscape:window-maximized="1"
     inkscape:snap-bbox="true"
     inkscape:bbox-nodes="true"
     inkscape:lockguides="false"
     inkscape:pagecheckerboard="0"
     inkscape:showpageshadow="false">
    <inkscape:grid
       type="xygrid"
       id="grid1410"
       originx="5.9999999e-07"
       originy="0" />
  </sodipodi:namedview>
  <metadata
     id="metadata844">
    <rdf:RDF>
      <cc:Work
         rdf:about="">
        <dc:format>image/svg+xml</dc:format>
        <dc:type
           rdf:resource="http://purl.org/dc/dcmitype/StillImage" />
      </cc:Work>
    </rdf:RDF>
    <style
       id="current-color-scheme" />
  </metadata>
  <g
     inkscape:label="Layer 1"
     inkscape:groupmode="layer"
     id="layer1">
    <g
       id="activities"
       style="fill:#d3dae3;fill-opacity:1">
      <rect
         y="0"
         x="0"
         height="8.4666662"
         width="8.4666662"
         id="rect1430"
         style="opacity:0.00100002;fill:#d3dae3;fill-opacity:0.01;stroke-width:0.529167" />
      <path
         stroke-width="0.201452"
         stroke-linecap="round"
         stroke-miterlimit="10"
         d="M 6.249274,5.131356 V 3.0707283 C 6.249274,2.746913 5.9701433,2.481976 5.628985,2.481976 H 2.8376839 c -0.3411596,0 -0.6202912,0.264937 -0.6202912,0.5887523 V 5.131356 c 0,0.3238136 0.2791316,0.5887514 0.6202912,0.5887514 H 5.628985 c 0.3411583,0 0.620289,-0.2649378 0.620289,-0.5887514 z M 2.9410655,5.3975 C 2.7136262,5.3975 2.54,5.2491064 2.54,5.0332315 V 3.1688518 c 0,-0.2158744 0.1736262,-0.3642685 0.4010655,-0.3642685 h 2.5845383 c 0.2274392,0 0.37585,0.1484058 0.3781032,0.3642685 L 5.923168,5.0332315 C 5.9254213,5.2490947 5.7530435,5.3975 5.5256043,5.3975 Z"
         id="path10"
         style="fill:#d3dae3;fill-opacity:1;fill-rule:nonzero;stroke:#d3dae3;stroke-opacity:1"
         sodipodi:nodetypes="ssssssssssssssssss" />
      <path
         stroke-width="0.198451"
         stroke-linecap="round"
         stroke-miterlimit="10"
         d="M 6.7138047,5.195709 C 6.8328665,5.180864 7.1404437,5.14114 7.2595058,5.10145 7.4083336,5.051844 7.4083336,4.9526201 7.4083336,4.9526201 c 0,0 0.049615,-0.3472641 0.049615,-0.8433544 0,-0.496093 -0.049615,-0.8433576 -0.049615,-0.8433576 0,0 0,-0.099212 -0.1488278,-0.1488293 C 7.1404487,3.0773971 6.8328666,3.0376911 6.7138047,3.0228131 Z"
         id="path12"
         style="fill:#d3dae3;fill-opacity:1;stroke:#d3dae3;stroke-opacity:1" />
      <path
         stroke-width="0.198451"
         stroke-linecap="round"
         stroke-miterlimit="10"
         d="M 1.7791975,5.1956944 C 1.6601394,5.1808404 1.352557,5.1411284 1.2334946,5.1014384 1.0846678,5.0518344 1.0846678,4.9526092 1.0846678,4.9526092 c 0,0 -0.049611,-0.3472646 -0.049611,-0.8433554 0,-0.4960928 0.049611,-0.8433575 0.049611,-0.8433575 0,0 0,-0.099212 0.1488268,-0.1488291 0.1190604,-0.039692 0.4266407,-0.07938 0.5457029,-0.094256 z"
         id="path14"
         style="fill:#d3dae3;fill-opacity:1;stroke:#d3dae3;stroke-opacity:1" />
    </g>
    <g
       id="22-22-activities"
       style="fill:#d3dae3;fill-opacity:1">
      <rect
         style="opacity:0.00100002;fill:#d3dae3;fill-opacity:0.01;stroke-width:0.363802"
         id="rect1430-3-7-5"
         width="5.8208323"
         height="5.8208323"
         x="8.4666681"
         y="2.6458333" />
      <path
         stroke-width="0.181074"
         stroke-linecap="round"
         stroke-miterlimit="10"
         d="M 13.138631,6.508863 V 4.6036381 c 0,-0.2993951 -0.243913,-0.5443512 -0.542014,-0.5443512 h -2.439059 c -0.2981103,0 -0.5420198,0.2449561 -0.5420198,0.5443512 V 6.508863 c 0,0.2993932 0.2439095,0.5443502 0.5420198,0.5443502 h 2.439059 c 0.298101,0 0.542014,-0.244957 0.542014,-0.5443502 z m -2.890737,0.1850953 c -0.198738,0 -0.3015811,-0.076235 -0.2995592,-0.2758201 L 9.9657973,4.694362 c 0.00202,-0.1995848 0.083359,-0.2758204 0.2820967,-0.2758204 h 2.25839 c 0.198738,0 0.273092,0.076225 0.273092,0.2758204 v 1.7237762 c 0,0.199595 -0.07435,0.2758201 -0.273092,0.2758201 z"
         id="path10-3"
         style="fill:#d3dae3;fill-opacity:1;fill-rule:nonzero;stroke:#d3dae3;stroke-opacity:1"
         sodipodi:nodetypes="ssssssssssssssssss" />
      <path
         stroke-width="0.170771"
         stroke-linecap="round"
         stroke-miterlimit="10"
         d="m 13.579137,6.5172012 c 0.09967,-0.013132 0.357188,-0.048263 0.45687,-0.083373 0.124598,-0.043876 0.124598,-0.1316368 0.124598,-0.1316368 0,0 0.04151,-0.3071463 0.04151,-0.7459269 0,-0.4387823 -0.04151,-0.7459299 -0.04151,-0.7459299 0,0 0,-0.087749 -0.124598,-0.1316361 -0.09967,-0.0351 -0.357196,-0.070214 -0.45687,-0.083378 z"
         id="path12-6"
         style="fill:#d3dae3;fill-opacity:1;stroke:#d3dae3;stroke-opacity:1" />
      <path
         stroke-width="0.170762"
         stroke-linecap="round"
         stroke-miterlimit="10"
         d="M 9.1750373,6.516924 C 9.075363,6.5037889 8.8178482,6.4686667 8.7181686,6.4335694 8.5935666,6.3897024 8.5935666,6.3019501 8.5935666,6.3019501 c 0,0 -0.041518,-0.3071079 -0.041518,-0.7458319 0,-0.4387265 0.041518,-0.7458347 0.041518,-0.7458347 0,0 0,-0.087738 0.124602,-0.1316183 0.099679,-0.035105 0.357192,-0.0702 0.4568687,-0.083357 z"
         id="path14-7"
         style="fill:#d3dae3;fill-opacity:1;stroke:#d3dae3;stroke-opacity:1" />
    </g>
  </g>
</svg>
