<?xml version="1.0" encoding="UTF-8" standalone="no"?>
<svg
   version="1.1"
   viewBox="0 0 22 22"
   id="svg7"
   sodipodi:docname="distribute.svg"
   inkscape:version="1.1.2 (0a00cf5339, 2022-02-04)"
   xmlns:inkscape="http://www.inkscape.org/namespaces/inkscape"
   xmlns:sodipodi="http://sodipodi.sourceforge.net/DTD/sodipodi-0.dtd"
   xmlns="http://www.w3.org/2000/svg"
   xmlns:svg="http://www.w3.org/2000/svg"
   xmlns:rdf="http://www.w3.org/1999/02/22-rdf-syntax-ns#"
   xmlns:cc="http://creativecommons.org/ns#"
   xmlns:dc="http://purl.org/dc/elements/1.1/">
  <g
     id="distribute-horizontal-x">
    <path
       style="opacity:0.00100002"
       d="m 0,-2e-5 h 22 v 22 H 0 Z"
       id="path2" />
    <path
       class="fil0"
       d="M 5.221945,9 H 16.778056 C 17.458854,9 18,9.5311208 18,10.161825 v 1.659752 C 18,12.46888 17.458854,13 16.778056,13 H 5.221945 C 4.5586031,13 4,12.46888 4,11.821577 V 10.161825 C 4,9.5311208 4.5586031,9 5.221945,9 Z m 0,0.5809132 h 11.556111 c 0.33167,0 0.610973,0.26556 0.610973,0.5809118 v 1.659752 c 0,0.33195 -0.279303,0.580913 -0.610973,0.580913 H 5.221945 c -0.3316715,0 -0.610973,-0.248963 -0.610973,-0.580913 v -1.659752 c 0,-0.3153518 0.2793015,-0.5809118 0.610973,-0.5809118 z"
       id="path6-3"
       style="fill:#d3dae3;fill-opacity:1;fill-rule:evenodd;stroke-width:0.0170215;image-rendering:optimizeQuality;shape-rendering:geometricPrecision;text-rendering:geometricPrecision" />
    <rect
       x="6"
       y="-20"
       width="1"
       height="18"
       rx="0.5"
       ry="0.45375058"
       transform="rotate(90)"
       id="rect4"
       style="fill:#d3dae3;fill-opacity:1;stroke-width:0.273809" />
    <rect
       x="15"
       y="-20"
       width="1"
       height="18"
       rx="0.5"
       ry="0.45375058"
       transform="rotate(90)"
       id="rect4-6"
       style="fill:#d3dae3;fill-opacity:1;stroke-width:0.273809" />
  </g>
  <metadata
     id="metadata13">
    <rdf:RDF>
      <cc:Work
         rdf:about="">
        <dc:format>image/svg+xml</dc:format>
        <dc:type
           rdf:resource="http://purl.org/dc/dcmitype/StillImage" />
      </cc:Work>
    </rdf:RDF>
  </metadata>
  <defs
     id="defs11" />
  <sodipodi:namedview
     pagecolor="#ffffff"
     bordercolor="#000000"
     borderopacity="1"
     objecttolerance="10"
     gridtolerance="10"
     guidetolerance="10"
     inkscape:pageopacity="0"
     inkscape:pageshadow="2"
     inkscape:window-width="1920"
     inkscape:window-height="1011"
     id="namedview9"
     showgrid="false"
     inkscape:zoom="14.272727"
     inkscape:cx="15.659236"
     inkscape:cy="13.557325"
     inkscape:window-x="0"
     inkscape:window-y="0"
     inkscape:window-maximized="1"
     inkscape:current-layer="svg7"
     inkscape:document-rotation="0"
     inkscape:lockguides="true"
     inkscape:pagecheckerboard="0"
     inkscape:showpageshadow="false">
    <inkscape:grid
       type="xygrid"
       id="grid867" />
  </sodipodi:namedview>
  <g
     id="g12"
     transform="matrix(0.01895663,0,0,0.01895663,34.521686,2.71277)">
    <g
       transform="matrix(0.1,0,0,-0.1,0,511)"
       id="g10" />
  </g>
</svg>
