<?xml version="1.0" encoding="UTF-8" standalone="no"?>
<svg
   xmlns:dc="http://purl.org/dc/elements/1.1/"
   xmlns:cc="http://creativecommons.org/ns#"
   xmlns:rdf="http://www.w3.org/1999/02/22-rdf-syntax-ns#"
   xmlns:svg="http://www.w3.org/2000/svg"
   xmlns="http://www.w3.org/2000/svg"
   xmlns:sodipodi="http://sodipodi.sourceforge.net/DTD/sodipodi-0.dtd"
   xmlns:inkscape="http://www.inkscape.org/namespaces/inkscape"
   width="32"
   height="32"
   version="1"
   id="svg12"
   sodipodi:docname="juk.svg"
   inkscape:version="1.0.2 (e86c870879, 2021-01-15)">
  <metadata
     id="metadata18">
    <rdf:RDF>
      <cc:Work
         rdf:about="">
        <dc:format>image/svg+xml</dc:format>
        <dc:type
           rdf:resource="http://purl.org/dc/dcmitype/StillImage" />
      </cc:Work>
    </rdf:RDF>
  </metadata>
  <defs
     id="defs16" />
  <sodipodi:namedview
     pagecolor="#ffffff"
     bordercolor="#666666"
     borderopacity="1"
     objecttolerance="10"
     gridtolerance="10"
     guidetolerance="10"
     inkscape:pageopacity="0"
     inkscape:pageshadow="2"
     inkscape:window-width="1920"
     inkscape:window-height="1007"
     id="namedview14"
     showgrid="false"
     inkscape:zoom="9.8125"
     inkscape:cx="30.559955"
     inkscape:cy="25.394477"
     inkscape:window-x="0"
     inkscape:window-y="0"
     inkscape:window-maximized="1"
     inkscape:current-layer="svg12"
     inkscape:document-rotation="0">
    <inkscape:grid
       type="xygrid"
       id="grid865"
       originx="0"
       originy="0" />
  </sodipodi:namedview>
  <g
     id="juk"
     transform="translate(32,10)">
    <rect
       style="opacity:0.00100002"
       width="32"
       height="32"
       x="-32"
       y="-10"
       id="rect7" />
    <path
       id="path15"
       class="ColorScheme-Text"
       d="m -15.564075,-8 v 19.826185 c -1.465066,-0.63188 -3.749635,-0.965829 -5.563287,-0.214301 -3.035823,1.256758 -4.391992,4.050034 -3.50512,6.191951 0.886869,2.142596 3.684902,2.824843 6.721403,1.567405 2.395317,-0.994342 3.553306,-3.632749 3.549619,-5.189677 l -0.03601,-15.1840866 c 0,0 5.950653,0.6989709 5.950653,6.2969156 0,4.198445 -1.2841,5.365568 -4.783984,8.864278 3.499884,-2.099221 6.181926,-4.665833 6.181926,-8.864278 0,-5.5979447 -4.321041,-8.1154152 -5.42771,-9.2217037 -0.699972,-0.6997482 -1.572252,-3.3722963 -1.572252,-3.3722963 z"
       style="fill:#d3dae3;fill-opacity:1;stroke:none;stroke-width:1.16669" />
  </g>
  <g
     id="22-22-juk"
     transform="translate(32,10)">
    <rect
       style="opacity:0.00100002"
       width="22"
       height="22"
       x="0"
       y="0"
       id="rect2" />
    <path
       id="path15-3"
       class="ColorScheme-Text"
       d="m 11.334801,3 v 11.329249 c -0.837166,-0.361075 -2.1426374,-0.551903 -3.1790144,-0.122458 -1.734747,0.718147 -2.509707,2.314305 -2.002917,3.538257 0.506769,1.224341 2.105647,1.614197 3.8408024,0.89566 1.368748,-0.568195 2.030447,-2.075856 2.028341,-2.965529 l -0.02052,-8.676622 c 0,0 3.40037,0.399414 3.40037,3.598238 0,2.399112 -0.733773,3.066039 -2.733707,5.065303 1.999934,-1.199556 3.532534,-2.666191 3.532534,-5.065303 0,-3.198824 -2.469172,-4.637375 -3.101548,-5.269542 C 12.699151,4.927402 12.200714,3.40023 12.200714,3.40023 Z"
       style="fill:#d3dae3;fill-opacity:1;stroke:none;stroke-width:0.666674" />
  </g>
</svg>
