<?xml version="1.0" encoding="UTF-8" standalone="no"?>
<svg
   sodipodi:docname="kdeconnect.svg"
   height="31.999973"
   width="32.000015"
   inkscape:version="1.2 (dc2aedaf03, 2022-05-15)"
   version="1.1"
   id="svg"
   viewBox="0 0 32.000014 31.999973"
   xmlns:inkscape="http://www.inkscape.org/namespaces/inkscape"
   xmlns:sodipodi="http://sodipodi.sourceforge.net/DTD/sodipodi-0.dtd"
   xmlns="http://www.w3.org/2000/svg"
   xmlns:svg="http://www.w3.org/2000/svg"
   xmlns:rdf="http://www.w3.org/1999/02/22-rdf-syntax-ns#"
   xmlns:cc="http://creativecommons.org/ns#"
   xmlns:dc="http://purl.org/dc/elements/1.1/">
  <defs
     id="defs81">
    <style
       type="text/css"
       id="current-color-scheme" />
    <style
       id="current-color-scheme-9"
       type="text/css" />
  </defs>
  <metadata
     id="metadata34">
    <rdf:RDF>
      <cc:Work
         rdf:about="">
        <dc:format>image/svg+xml</dc:format>
        <dc:type
           rdf:resource="http://purl.org/dc/dcmitype/StillImage" />
      </cc:Work>
    </rdf:RDF>
  </metadata>
  <sodipodi:namedview
     inkscape:document-rotation="0"
     fit-margin-bottom="0"
     fit-margin-right="0"
     fit-margin-left="0"
     fit-margin-top="0"
     inkscape:snap-bbox-midpoints="true"
     inkscape:snap-bbox="true"
     inkscape:guide-bbox="true"
     showguides="false"
     borderlayer="true"
     inkscape:current-layer="svg"
     inkscape:window-maximized="1"
     inkscape:window-y="0"
     inkscape:window-x="0"
     inkscape:cy="37.565049"
     inkscape:cx="19.357049"
     inkscape:zoom="5.6568541"
     showgrid="false"
     id="namedview32"
     inkscape:window-height="1002"
     inkscape:window-width="1920"
     inkscape:pageshadow="2"
     inkscape:pageopacity="0.11372549"
     guidetolerance="10"
     gridtolerance="10"
     objecttolerance="10"
     borderopacity="1"
     bordercolor="#000000"
     pagecolor="#ffffff"
     inkscape:showpageshadow="2"
     inkscape:pagecheckerboard="0"
     inkscape:deskcolor="#d1d1d1"
     inkscape:lockguides="false">
    <inkscape:grid
       type="xygrid"
       id="grid1418"
       originx="4.9711911e-07"
       originy="3.8330078e-08" />
  </sodipodi:namedview>
  <g
     transform="translate(7.562501,73.281246)"
     id="16-16-kdeconnect">
    <rect
       style="fill:#566060;fill-opacity:0;stroke:none"
       id="rect3889"
       width="16"
       height="16"
       x="-2.6000002e-05"
       y="-3.7329864e-05"
       ry="2.9278411e-07" />
  </g>
  <g
     id="kdeconnect">
    <rect
       width="32.000015"
       height="31.999973"
       rx="0"
       ry="0"
       x="-2.9711913e-07"
       y="-3.8330079e-08"
       id="rect3860"
       style="opacity:0.01;fill:#eff0f1;fill-opacity:0;stroke:none" />
    <path
       d="m 20.339637,14.581818 h 1.527273 v 1.909091 A 1.909091,1.9090909 0 0 1 19.957819,18.4 H 13.085091 A 1.909091,1.9090909 0 0 1 11.176,16.490909 v -1.909091 h 1.527273 a 0.38181821,0.38181818 0 0 0 0.271091,-0.110727 l 0.763637,-0.763636 0.908727,1.817454 a 0.35127275,0.35127273 0 0 0 0.347455,0.202364 0.38181821,0.38181818 0 0 0 0.339818,-0.225273 l 1.145454,-2.539091 1.214182,3.650182 a 0.38181821,0.38181818 0 0 0 0.725455,0 l 0.950727,-2.852182 0.706364,0.710182 a 0.38181821,0.38181818 0 0 0 0.263454,0.110727 z m -6.762,-1.798363 a 0.38181821,0.38181818 0 0 1 0.332182,-0.110728 0.38181821,0.38181818 0 0 1 0.278727,0.206182 l 0.805637,1.573091 1.198909,-2.699455 a 0.38181821,0.38181818 0 0 1 0.381818,-0.225272 0.38181821,0.38181818 0 0 1 0.343636,0.259636 l 1.130182,3.497455 0.782728,-2.352 a 0.38181821,0.38181818 0 0 1 0.274909,-0.248182 0.38181821,0.38181818 0 0 1 0.358909,0.09927 l 1.030909,1.034727 H 21.86691 V 11.909091 A 1.909091,1.9090909 0 0 0 19.957819,10 H 13.085091 A 1.909091,1.9090909 0 0 0 11.176,11.909091 v 1.909091 h 1.370728 z"
       id="path4"
       style="fill:#d3dae3;fill-opacity:1;stroke-width:0.381818" />
    <path
       d="m 9,6.9663675 c -0.189013,0 -0.3,0.121887 -0.3,0.272181 v 0.534415 C 8.7,7.9255155 8.812405,8 9,8 v 0.8539895 c -0.189013,0 -0.3,0.119634 -0.3,0.267294 v 1.0836595 c 0,0.145403 0.112405,0.267107 0.3,0.267107 v 0.539277 c -0.189013,0 -0.3,0.119634 -0.3,0.267294 v 1.083469 c 0,0.145589 0.112405,0.267294 0.3,0.267294 v 14.022478 c 0,0.743741 0.801881,1.348123 1.741487,1.348123 H 22.29837 C 23.237564,27.999985 24,27.396374 24,26.651862 V 5.218 C 24,4.4744525 23.49963,4 22.798,4 h -0.838071 c 0,-0.149918 -0.151526,-0.5 -0.338432,-0.5 h -2.723132 c -0.18356,0 -0.33843,0.351021 -0.33843,0.5 H 10.342 C 9.402828,4 9,4.4734895 9,5.218 Z M 15.329813,26.51694 c 0,-0.52122 0.534102,-0.943725 1.190131,-0.943725 0.65716,0 1.189868,0.423608 1.189868,0.943725 0,0.52122 -0.534103,0.943917 -1.189868,0.943917 -0.657424,0 -1.190131,-0.423608 -1.190131,-0.943917 z M 10,6 H 23 V 25 H 10 Z m 4.989774,-0.7863461 c 0,-0.07449 0.07552,-0.1348695 0.17336,-0.1348695 h 2.713356 c 0.09594,0 0.17336,0.06264 0.17336,0.1348695 0,0.07449 -0.07552,0.1348702 -0.17336,0.1348702 h -2.713356 c -0.09554,0 -0.17336,-0.06264 -0.17336,-0.1348702 z"
       fill-rule="evenodd"
       id="path76"
       style="color:#d6dbf1;fill:#d3dae3;fill-opacity:1;stroke-width:0.0540706"
       sodipodi:nodetypes="cssccssccsscsssssscsscsccssssscccccsssssss"
       class="ColorScheme-Text" />
  </g>
  <g
     id="22-22-kdeconnect"
     transform="translate(4.5624741,38.781208)">
    <rect
       style="fill:#000000;fill-opacity:0;stroke:none"
       id="rect3841"
       width="22"
       height="22"
       x="-2.6043701e-08"
       y="3.8330079e-08" />
    <path
       d="M 13.642859,9.981809 H 14.5 v 1.159092 A 1.0714282,1.1590962 0 0 1 13.428571,12.3 H 9.5714302 a 1.0714282,1.1590962 0 0 1 -1.07143,-1.159099 V 9.981809 h 0.85714 a 0.21428568,0.23181931 0 0 0 0.152149,-0.06721 l 0.42857,-0.463642 0.5099988,1.103461 a 0.19714283,0.21327378 0 0 0 0.194999,0.122863 0.21428568,0.23181931 0 0 0 0.190718,-0.136767 l 0.642854,-1.541601 0.681431,2.216193 a 0.21428568,0.23181931 0 0 0 0.40714,0 l 0.533571,-1.731692 0.396425,0.431188 a 0.21428568,0.23181931 0 0 0 0.147863,0.06721 z M 9.8478582,8.889938 a 0.21428568,0.23181931 0 0 1 0.1864288,-0.06721 0.21428568,0.23181931 0 0 1 0.156427,0.12518 l 0.452143,0.955101 0.672857,-1.638969 a 0.21428568,0.23181931 0 0 1 0.214283,-0.136768 0.21428568,0.23181931 0 0 1 0.192859,0.157634 l 0.634285,2.12347 0.439289,-1.42801 a 0.21428568,0.23181931 0 0 1 0.154281,-0.150683 0.21428568,0.23181931 0 0 1 0.201432,0.06031 l 0.578568,0.62823 H 14.5 V 8.359102 A 1.0714282,1.1590962 0 0 0 13.428571,7.2 H 9.5714302 a 1.0714282,1.1590962 0 0 0 -1.07143,1.159098 v 1.159093 h 0.769286 z"
       id="path4-3"
       style="fill:#d3dae3;fill-opacity:1;stroke-width:0.22288" />
    <path
       d="m 6.5,5.177587 c -0.123538,0 -0.3,0.08126 -0.3,0.181454 v 0.356276 c 0,0.101702 0.17739,0.181454 0.3,0.181454 v 0.53923 c -0.123538,0 -0.3,0.07976 -0.3,0.178196 v 0.722441 c 0,0.09694 0.17739,0.178071 0.3,0.178071 v 0.359518 c -0.123538,0 -0.3,0.07976 -0.3,0.178196 v 0.722313 c 0,0.09706 0.17739,0.178196 0.3,0.178196 v 9.348319 C 6.5,18.797079 6.885875,19.2 7.4999999,19.2 H 15.387823 C 16.001674,19.2 16.5,18.797592 16.5,18.301251 V 4.178 C 16.5,3.682301 16.127522,3.2 15.542953,3.2 h -0.376332 c 0,-0.09995 -0.09904,-0.4 -0.221198,-0.4 h -1.779825 c -0.119973,0 -0.221196,0.300679 -0.221196,0.4 H 7.8345179 C 7.220676,3.2 6.5,3.782109 6.5,4.27845 Z m 4.333211,13.033716 c 0,-0.34748 0.349086,-0.629149 0.777862,-0.629149 0.429518,0 0.777692,0.282404 0.777692,0.629149 0,0.34748 -0.349086,0.629278 -0.777692,0.629278 -0.429689,0 -0.777862,-0.282405 -0.777862,-0.629278 z M 7.4999999,4.2 H 15.5 v 13 H 7.4999999 Z"
       fill-rule="evenodd"
       id="path76-5"
       style="color:#d6dbf1;fill:#d3dae3;fill-opacity:1;stroke-width:0.0356918"
       sodipodi:nodetypes="cssccssccsscsssssscsscsccsssssccccc"
       class="ColorScheme-Text" />
  </g>
</svg>
