<?xml version="1.0" encoding="UTF-8" standalone="no"?>
<svg
   width="22"
   height="22"
   id="svg2"
   version="1.1"
   inkscape:version="1.2 (dc2aedaf03, 2022-05-15)"
   sodipodi:docname="zoom.svg"
   xmlns:inkscape="http://www.inkscape.org/namespaces/inkscape"
   xmlns:sodipodi="http://sodipodi.sourceforge.net/DTD/sodipodi-0.dtd"
   xmlns="http://www.w3.org/2000/svg"
   xmlns:svg="http://www.w3.org/2000/svg"
   xmlns:rdf="http://www.w3.org/1999/02/22-rdf-syntax-ns#"
   xmlns:cc="http://creativecommons.org/ns#"
   xmlns:dc="http://purl.org/dc/elements/1.1/">
  <defs
     id="defs4" />
  <sodipodi:namedview
     id="base"
     pagecolor="#ffffff"
     bordercolor="#000000"
     borderopacity="1"
     inkscape:pageopacity="0.91764706"
     inkscape:pageshadow="2"
     inkscape:zoom="11.2"
     inkscape:cx="15.758929"
     inkscape:cy="5.3125"
     inkscape:document-units="px"
     inkscape:current-layer="layer1"
     showgrid="false"
     inkscape:window-width="1920"
     inkscape:window-height="1000"
     inkscape:window-x="0"
     inkscape:window-y="0"
     inkscape:window-maximized="1"
     inkscape:document-rotation="0"
     inkscape:lockguides="true"
     inkscape:showpageshadow="2"
     inkscape:pagecheckerboard="0"
     inkscape:deskcolor="#d1d1d1">
    <inkscape:grid
       type="xygrid"
       id="grid927"
       originx="0.02957"
       originy="-17.9618" />
  </sodipodi:namedview>
  <metadata
     id="metadata7">
    <rdf:RDF>
      <cc:Work
         rdf:about="">
        <dc:format>image/svg+xml</dc:format>
        <dc:type
           rdf:resource="http://purl.org/dc/dcmitype/StillImage" />
        <dc:creator>
          <cc:Agent>
            <dc:title>Malcer</dc:title>
          </cc:Agent>
        </dc:creator>
        <dc:description>Caledonia plasma theme icon</dc:description>
      </cc:Work>
    </rdf:RDF>
  </metadata>
  <g
     inkscape:label="Capa 1"
     inkscape:groupmode="layer"
     id="layer1"
     transform="translate(-0.4,-1030.6622)">
    <g
       id="zoom-fit-width"
       transform="translate(0.4,0.3)">
      <rect
         transform="translate(0,1030.3622)"
         y="0"
         x="0"
         height="22"
         width="22"
         id="rect3006"
         style="opacity:0;fill:#00fffa;fill-opacity:1;fill-rule:evenodd;stroke:none;stroke-width:3;stroke-linecap:butt;stroke-linejoin:round;stroke-miterlimit:4;stroke-dasharray:none;stroke-dashoffset:0;stroke-opacity:1" />
      <path
         style="fill:#d3dae3;fill-opacity:1;fill-rule:evenodd;stroke:none"
         d="M 2,2 V 20 H 4 V 2 Z m 16,0 v 18 h 2 V 2 Z M 9,7 5,11 9,15 V 12.1875 11.09375 10 Z m 4,0 v 8 l 4,-4 z"
         transform="translate(0,1030.3622)"
         id="rect3776"
         sodipodi:nodetypes="ccccccccccccccccccccc" />
    </g>
    <g
       id="zoom-fit-height"
       transform="rotate(90,23.55,1054.2122)">
      <rect
         transform="translate(0,1030.3622)"
         y="0"
         x="0"
         height="22"
         width="22"
         id="rect3006-8"
         style="opacity:0;fill:#00fffa;fill-opacity:1;fill-rule:evenodd;stroke:none" />
      <path
         inkscape:connector-curvature="0"
         style="fill:#d3dae3;fill-opacity:1;fill-rule:evenodd;stroke:none"
         d="M 2,2 V 20 H 4 V 2 Z m 16,0 v 18 h 2 V 2 Z M 9,7 5,11 9,15 V 12.1875 11.09375 10 Z m 4,0 v 8 l 4,-4 z"
         transform="translate(0,1030.3622)"
         id="rect3776-2"
         sodipodi:nodetypes="ccccccccccccccccccccc" />
    </g>
    <g
       id="16-16-zoom-fit-width"
       transform="matrix(0.72727273,0,0,0.72727273,0.42956993,263.34607)">
      <rect
         transform="translate(0,1030.3622)"
         y="0"
         x="0"
         height="22"
         width="22"
         id="rect3006-1"
         style="opacity:0;fill:#00fffa;fill-opacity:1;fill-rule:evenodd;stroke:none" />
      <path
         inkscape:connector-curvature="0"
         style="fill:#d3dae3;fill-opacity:1;fill-rule:evenodd;stroke:none;stroke-width:0.916664"
         d="m 2.75,1033.1122 v 16.5 h 1.375 v -16.5 z m 15.125,0 v 16.5 h 1.375 v -16.5 z m -8.7083351,5.2716 -3.6666656,2.9784 3.6666656,2.8536 v -1.7649 -1.0031 -1.0022 z m 3.6666681,0 v 5.832 l 3.666668,-2.8536 z"
         id="rect3776-5"
         sodipodi:nodetypes="ccccccccccccccccccccc" />
    </g>
    <g
       id="16-16-zoom-fit-height"
       transform="matrix(0,0.72727273,-0.72727273,0,792.83043,1012.7267)">
      <rect
         transform="translate(0,1030.3622)"
         y="0"
         x="0"
         height="22"
         width="22"
         id="rect3006-8-3"
         style="opacity:0;fill:#00fffa;fill-opacity:1;fill-rule:evenodd;stroke:none" />
      <path
         inkscape:connector-curvature="0"
         style="fill:#d3dae3;fill-opacity:1;fill-rule:evenodd;stroke:none;stroke-width:0.916666"
         d="m 2.75,1033.1122 -0.036163,16.564 h 1.375 v -16.5 z m 15.088837,0.064 v 16.5 h 1.375 l 0.03616,-16.564 z m -8.6721701,5.2066 -3.6666672,2.9794 3.6666672,2.9796 v -1.8909 -1.0031 -1.0022 z m 3.6666651,0 v 5.959 l 3.666671,-2.9796 z"
         id="rect3776-2-4"
         sodipodi:nodetypes="ccccccccccccccccccccc" />
    </g>
  </g>
</svg>
