<?xml version="1.0" encoding="UTF-8" standalone="no"?>
<svg
   width="22"
   height="22"
   version="1.1"
   id="svg1"
   sodipodi:docname="network-wired-activated-limited.svg"
   inkscape:version="1.4.2 (unknown)"
   xmlns:inkscape="http://www.inkscape.org/namespaces/inkscape"
   xmlns:sodipodi="http://sodipodi.sourceforge.net/DTD/sodipodi-0.dtd"
   xmlns="http://www.w3.org/2000/svg"
   xmlns:svg="http://www.w3.org/2000/svg">
  <defs
     id="defs1" />
  <sodipodi:namedview
     id="namedview1"
     pagecolor="#ffffff"
     bordercolor="#999999"
     borderopacity="1"
     inkscape:showpageshadow="2"
     inkscape:pageopacity="0"
     inkscape:pagecheckerboard="0"
     inkscape:deskcolor="#d1d1d1"
     inkscape:zoom="12.245804"
     inkscape:cx="10.697542"
     inkscape:cy="17.761186"
     inkscape:window-width="1920"
     inkscape:window-height="996"
     inkscape:window-x="0"
     inkscape:window-y="0"
     inkscape:window-maximized="1"
     inkscape:current-layer="svg1" />
  <style
     type="text/css"
     id="current-color-scheme">.ColorScheme-Text{color:#31363b;}.ColorScheme-Background{color:#eff0f1;}.ColorScheme-Highlight{color:#3498db;}.ColorScheme-ViewText{color:#31363b;}.ColorScheme-ViewBackground{color:#fcfcfc;}.ColorScheme-ViewHover{color:#93cee9;}.ColorScheme-ViewFocus{color:#3daee9;}.ColorScheme-ButtonText{color:#31363b;}.ColorScheme-ButtonBackground{color:#eff0f1;}.ColorScheme-ButtonHover{color:#93cee9;}.ColorScheme-ButtonFocus{color:#3daee9;}.ColorScheme-NegativeText { color: #e74c3c; } </style>
  <path
     style="color:#e5e9ef;fill:#1e2431;fill-opacity:1;stroke:none;stroke-width:0.99922"
     d="M 5,3 C 4,3 3,4 3,5 v 8 c 0,1 1.04598,2 2.02184,2.00007 L 8.81591,15 c 0,0 0,1 0.99844,1 v 0 1 H 3.52418 c -0.69891,0 -0.69891,1 0,1 h 6.29017 c 0,0 0,1 0.99844,1 v 0 c 0.99844,0 0.99844,-1 0.99844,-1 h 5.8908 c 0.79875,0 0.79875,-1 0,-1 h -5.8908 v -1 c 0.99844,0 0.99844,-1 0.99844,-1 v 0 0 0 0 0 l -1.0234,-1 V 4 c 0.69891,0 0.69891,-1 0,-1 z m 0.52106,1 h 5.26677 0.99844 v 10 l 1.0234,1 H 13.2 c 0.69891,0 0.69891,-1 0,-1 l -7.80742,10e-6 C 4.5484,14 4,13.49345 4,12.5 v -7 C 4,4.5 4.52262,4 5.52106,4 Z"
     id="rect4144-9-6-7-3-2-9"
     class="ColorScheme-Text "
     sodipodi:nodetypes="ccccccccccccccccccccccccccccccccccccccc" />
  <path
     class="ColorScheme-Text"
     d="M 15.00624,2 C 14.59022,2 14,2.5 14,3 v 3 c 0,0.5 0.59022,1 1.00624,1 H 16 v 2.5 c 0,0.7 1,0.7 1,0 V 7 h 1.00156 C 18.50078,7 19,6.5 19,6 V 3 C 19,2.5 18.50078,2 18.00156,2 Z m -0.006,1 h 3.00156 -0.002 v 2 1 h -3 l 0.006,-1 z"
     stroke-opacity="0"
     stroke-width="0.334742"
     id="path5-3-5-5-7-3"
     style="color:#d1d5e9;fill:#1e2431;fill-opacity:1"
     sodipodi:nodetypes="ssscccccssssscccccccc" />
  <path
     class="ColorScheme-NeutralText"
     inkscape:connector-curvature="0"
     id="path14321"
     d="M 16.5,11 14,15 h 5 z"
     style="color:#ffc850;fill:#ffc107;stroke-width:0.666663"
     sodipodi:nodetypes="cccc" />
</svg>
